<svg version="1.1" id="Layer_1" xmlns="http://www.w3.org/2000/svg" xmlns:xlink="http://www.w3.org/1999/xlink" x="0px" y="0px"
	 width="100%" viewBox="0 0 640 640" enable-background="new 0 0 640 640" xml:space="preserve">
<path fill="#000000" opacity="1.000000" stroke="none" 
	d="
M231.000000,641.000000 
	C154.364334,641.000000 77.728668,641.000000 1.046501,641.000000 
	C1.046501,427.783936 1.046501,214.567871 1.046501,1.000000 
	C68.688271,1.000000 136.377151,1.000000 204.531128,1.420671 
	C204.395706,5.775251 202.818954,9.429148 205.755005,13.519038 
	C214.599976,25.840002 222.864151,38.576599 231.617386,50.965603 
	C233.898743,54.194557 233.208710,56.344177 230.292328,57.853275 
	C210.390991,68.151360 193.146164,81.611160 178.551193,98.754135 
	C165.886642,113.629669 156.244247,129.900314 151.049698,149.140411 
	C147.978531,159.714142 146.472427,170.150208 145.963837,180.833344 
	C147.710449,180.833344 148.855423,180.833344 150.464569,180.902191 
	C264.294678,180.980438 377.660645,180.990280 491.026611,180.992416 
	C492.021942,180.992432 493.017303,180.888657 494.263916,180.857330 
	C494.621246,180.595291 494.727295,180.309280 494.902161,179.593262 
	C494.314484,173.309677 493.896790,167.417480 492.957184,161.609711 
	C490.053589,143.662247 483.673035,126.855766 473.285919,112.058197 
	C459.633698,92.609138 442.534698,76.567238 421.628387,64.809273 
	C416.853455,62.123779 412.532349,58.631310 407.645020,55.264015 
	C414.829224,44.743607 422.037537,34.456951 428.947784,23.973799 
	C433.517578,17.041151 441.096832,11.023022 437.000000,1.000000 
	C504.972565,1.000000 572.945129,1.000000 640.958862,1.000000 
	C640.958862,214.219788 640.958862,427.439575 640.958862,641.000000 
	C563.978333,641.000000 486.956146,641.000000 409.130798,640.750854 
	C409.090088,639.916565 409.802612,639.247681 410.622528,638.758911 
	C423.793671,630.906921 431.055420,619.649841 431.017822,604.002075 
	C430.953369,577.178589 431.000000,550.354797 431.000000,523.531128 
	C431.000000,521.774475 431.000000,520.017883 431.000000,518.000000 
	C442.186584,518.000000 452.678894,518.316895 463.137177,517.857971 
	C467.920013,517.648071 473.031433,516.742310 477.307709,514.709106 
	C490.027954,508.661255 495.906128,497.702911 495.926819,484.000427 
	C496.066986,391.200775 496.000000,298.400787 496.000000,205.600922 
	C496.000000,203.837509 496.000000,202.074112 496.000000,200.352386 
	C378.984283,200.352386 262.629883,200.352386 146.000000,200.352386 
	C146.000000,202.517105 146.000000,204.331024 146.000000,206.144928 
	C146.000000,299.444641 145.978546,392.744324 146.019196,486.044037 
	C146.026764,503.435547 160.018738,517.925659 177.847488,517.992615 
	C188.447632,518.032471 199.048050,518.000000 209.999985,518.000000 
	C209.999985,520.416748 209.999954,522.219299 209.999954,524.021790 
	C209.999985,550.512268 209.791550,577.005066 210.091263,603.492126 
	C210.233383,616.051758 214.900269,626.827209 225.167999,634.785400 
	C227.385468,636.504089 229.069992,638.910400 231.000000,641.000000 
M596.000000,280.500000 
	C596.000000,266.008850 596.079529,251.517166 595.975586,237.026764 
	C595.887634,224.765121 590.517944,215.069656 580.698608,207.977600 
	C567.542969,198.475830 553.372131,197.001343 538.576538,203.800201 
	C524.948547,210.062531 516.393616,220.982712 516.236633,235.751633 
	C515.647034,291.211243 515.832092,346.681732 516.120789,402.146088 
	C516.191406,415.702881 523.392273,426.349640 534.432129,433.526978 
	C544.638611,440.162567 556.650146,440.647766 568.120667,437.703186 
	C583.830444,433.670319 596.148376,417.161102 596.069885,401.925537 
	C595.863159,361.784637 596.000000,321.641968 596.000000,280.500000 
M101.391930,436.006592 
	C104.341393,434.320770 107.583519,432.995697 110.187111,430.883514 
	C119.088150,423.662567 124.997498,414.711853 124.998314,402.741394 
	C125.002106,347.108276 125.001274,291.475128 124.999100,235.842010 
	C124.998550,221.683228 111.768036,204.012283 98.031792,201.234558 
	C86.861649,198.975739 75.614685,198.745544 65.064384,204.918381 
	C52.738102,212.130341 45.375298,223.007675 45.233109,236.786499 
	C44.667675,291.580994 44.898067,346.385101 45.108559,401.184570 
	C45.140808,409.579498 48.009129,417.399139 53.534081,424.086884 
	C60.552368,432.582275 69.428787,438.135559 80.342041,438.712524 
	C87.029213,439.066071 93.841484,437.053345 101.391930,436.006592 
z"/>
<path fill="#96C13E" opacity="1.000000" stroke="none" 
	d="
M231.468658,641.000000 
	C229.069992,638.910400 227.385468,636.504089 225.167999,634.785400 
	C214.900269,626.827209 210.233383,616.051758 210.091263,603.492126 
	C209.791550,577.005066 209.999985,550.512268 209.999954,524.021790 
	C209.999954,522.219299 209.999985,520.416748 209.999985,518.000000 
	C199.048050,518.000000 188.447632,518.032471 177.847488,517.992615 
	C160.018738,517.925659 146.026764,503.435547 146.019196,486.044037 
	C145.978546,392.744324 146.000000,299.444641 146.000000,206.144928 
	C146.000000,204.331024 146.000000,202.517105 146.000000,200.352386 
	C262.629883,200.352386 378.984283,200.352386 496.000000,200.352386 
	C496.000000,202.074112 496.000000,203.837509 496.000000,205.600922 
	C496.000000,298.400787 496.066986,391.200775 495.926819,484.000427 
	C495.906128,497.702911 490.027954,508.661255 477.307709,514.709106 
	C473.031433,516.742310 467.920013,517.648071 463.137177,517.857971 
	C452.678894,518.316895 442.186584,518.000000 431.000000,518.000000 
	C431.000000,520.017883 431.000000,521.774475 431.000000,523.531128 
	C431.000000,550.354797 430.953369,577.178589 431.017822,604.002075 
	C431.055420,619.649841 423.793671,630.906921 410.622528,638.758911 
	C409.802612,639.247681 409.090088,639.916565 408.663818,640.750854 
	C397.312439,641.000000 385.624878,641.000000 373.459351,640.629089 
	C372.390991,639.529724 371.950989,638.508057 371.187714,638.116516 
	C358.313904,631.512207 351.434845,620.648682 351.159058,606.567932 
	C350.618103,578.948853 351.000000,551.311646 351.000000,523.681946 
	C351.000000,521.911987 351.000000,520.142029 351.000000,518.338257 
	C330.699249,518.338257 311.000244,518.338257 291.000000,518.338257 
	C291.000000,520.479187 291.000000,522.289368 291.000000,524.099548 
	C291.000000,550.564148 291.328278,577.034363 290.872772,603.491089 
	C290.613342,618.558350 284.966675,631.154053 270.486542,638.276123 
	C269.727936,638.649292 269.483704,640.067993 269.000000,641.000000 
	C256.645782,641.000000 244.291550,641.000000 231.468658,641.000000 
z"/>
<path fill="#96C13E" opacity="1.000000" stroke="none" 
	d="
M151.166687,148.800873 
	C156.244247,129.900314 165.886642,113.629669 178.551193,98.754135 
	C193.146164,81.611160 210.390991,68.151360 230.292328,57.853275 
	C233.208710,56.344177 233.898743,54.194557 231.617386,50.965603 
	C222.864151,38.576599 214.599976,25.840002 205.755005,13.519038 
	C202.818954,9.429148 204.395706,5.775251 204.998108,1.420671 
	C208.692902,1.000000 212.385818,1.000000 216.196869,1.228990 
	C220.956070,8.172830 225.561966,14.912315 230.247101,21.596247 
	C236.004333,29.809647 241.780411,38.011150 247.686981,46.116764 
	C248.367340,47.050419 250.103973,48.040173 251.061005,47.808174 
	C256.091431,46.588757 260.968628,44.722446 266.010773,43.569363 
	C276.305756,41.215012 286.597168,37.933235 297.027222,37.302639 
	C311.384216,36.434624 325.882355,37.390091 340.292084,38.117744 
	C347.610382,38.487301 354.944641,39.699078 362.132233,41.198486 
	C370.545166,42.953514 378.825928,45.364464 387.124695,47.634701 
	C391.083740,48.717754 393.967926,47.812504 396.265808,44.276730 
	C400.744995,37.384609 405.475128,30.656149 410.026245,23.809996 
	C415.061340,16.235809 420.012360,8.605741 425.000000,1.000001 
	C428.692902,1.000000 432.385834,1.000000 436.539368,1.000000 
	C441.096832,11.023022 433.517578,17.041151 428.947784,23.973799 
	C422.037537,34.456951 414.829224,44.743607 407.645020,55.264015 
	C412.532349,58.631310 416.853455,62.123779 421.628387,64.809273 
	C442.534698,76.567238 459.633698,92.609138 473.285919,112.058197 
	C483.673035,126.855766 490.053589,143.662247 492.957184,161.609711 
	C493.896790,167.417480 494.314484,173.309677 494.756104,179.718689 
	C494.352142,180.448334 494.175934,180.634735 494.012634,180.833344 
	C493.017303,180.888657 492.021942,180.992432 491.026611,180.992416 
	C377.660645,180.990280 264.294678,180.980438 150.451233,180.536194 
	C149.896378,178.774826 149.565979,177.405060 149.783920,176.128952 
	C150.944595,169.332962 152.524185,162.593658 153.330597,155.760605 
	C153.590729,153.556503 151.942123,151.127167 151.166687,148.800873 
M384.230743,124.550957 
	C389.866608,132.608658 404.286011,133.252838 410.171478,125.519997 
	C411.789093,123.394669 413.389648,120.699051 411.024811,117.118546 
	C411.381622,114.202400 412.655304,111.034409 411.935577,108.413979 
	C408.921814,97.441887 401.732971,92.976288 390.526611,95.081978 
	C382.882935,96.518234 375.743805,105.709763 378.585419,113.947601 
	C379.799988,117.468582 382.187561,120.584923 384.230743,124.550957 
M237.798340,124.953972 
	C239.304932,125.541237 240.766983,126.316772 242.325302,126.685310 
	C252.704391,129.139938 263.090210,120.813263 263.017517,111.076645 
	C262.944489,101.295082 256.217407,94.994720 245.674149,95.000000 
	C237.235474,95.004227 231.895203,98.965149 229.487717,107.005592 
	C227.644287,113.162209 230.927277,120.746254 237.798340,124.953972 
z"/>
<path fill="#000000" opacity="1.000000" stroke="none" 
	d="
M269.468689,641.000000 
	C269.483704,640.067993 269.727936,638.649292 270.486542,638.276123 
	C284.966675,631.154053 290.613342,618.558350 290.872772,603.491089 
	C291.328278,577.034363 291.000000,550.564148 291.000000,524.099548 
	C291.000000,522.289368 291.000000,520.479187 291.000000,518.338257 
	C311.000244,518.338257 330.699249,518.338257 351.000000,518.338257 
	C351.000000,520.142029 351.000000,521.911987 351.000000,523.681946 
	C351.000000,551.311646 350.618103,578.948853 351.159058,606.567932 
	C351.434845,620.648682 358.313904,631.512207 371.187714,638.116516 
	C371.950989,638.508057 372.390991,639.529724 372.990723,640.629089 
	C338.645782,641.000000 304.291534,641.000000 269.468689,641.000000 
z"/>
<path fill="#000000" opacity="1.000000" stroke="none" 
	d="
M424.531342,1.000001 
	C420.012360,8.605741 415.061340,16.235809 410.026245,23.809996 
	C405.475128,30.656149 400.744995,37.384609 396.265808,44.276730 
	C393.967926,47.812504 391.083740,48.717754 387.124695,47.634701 
	C378.825928,45.364464 370.545166,42.953514 362.132233,41.198486 
	C354.944641,39.699078 347.610382,38.487301 340.292084,38.117744 
	C325.882355,37.390091 311.384216,36.434624 297.027222,37.302639 
	C286.597168,37.933235 276.305756,41.215012 266.010773,43.569363 
	C260.968628,44.722446 256.091431,46.588757 251.061005,47.808174 
	C250.103973,48.040173 248.367340,47.050419 247.686981,46.116764 
	C241.780411,38.011150 236.004333,29.809647 230.247101,21.596247 
	C225.561966,14.912315 220.956070,8.172830 216.657516,1.228990 
	C286.020905,1.000000 355.041779,1.000000 424.531342,1.000001 
z"/>
<path fill="#96C13E" opacity="1.000000" stroke="none" 
	d="
M596.000000,281.000000 
	C596.000000,321.641968 595.863159,361.784637 596.069885,401.925537 
	C596.148376,417.161102 583.830444,433.670319 568.120667,437.703186 
	C556.650146,440.647766 544.638611,440.162567 534.432129,433.526978 
	C523.392273,426.349640 516.191406,415.702881 516.120789,402.146088 
	C515.832092,346.681732 515.647034,291.211243 516.236633,235.751633 
	C516.393616,220.982712 524.948547,210.062531 538.576538,203.800201 
	C553.372131,197.001343 567.542969,198.475830 580.698608,207.977600 
	C590.517944,215.069656 595.887634,224.765121 595.975586,237.026764 
	C596.079529,251.517166 596.000000,266.008850 596.000000,281.000000 
z"/>
<path fill="#96C13E" opacity="1.000000" stroke="none" 
	d="
M100.994751,436.054932 
	C93.841484,437.053345 87.029213,439.066071 80.342041,438.712524 
	C69.428787,438.135559 60.552368,432.582275 53.534081,424.086884 
	C48.009129,417.399139 45.140808,409.579498 45.108559,401.184570 
	C44.898067,346.385101 44.667675,291.580994 45.233109,236.786499 
	C45.375298,223.007675 52.738102,212.130341 65.064384,204.918381 
	C75.614685,198.745544 86.861649,198.975739 98.031792,201.234558 
	C111.768036,204.012283 124.998550,221.683228 124.999100,235.842010 
	C125.001274,291.475128 125.002106,347.108276 124.998314,402.741394 
	C124.997498,414.711853 119.088150,423.662567 110.187111,430.883514 
	C107.583519,432.995697 104.341393,434.320770 100.994751,436.054932 
z"/>
<path fill="#96C13E" opacity="1.000000" stroke="none" 
	d="
M151.049713,149.140411 
	C151.942123,151.127167 153.590729,153.556503 153.330597,155.760605 
	C152.524185,162.593658 150.944595,169.332962 149.783920,176.128952 
	C149.565979,177.405060 149.896378,178.774826 149.987061,180.467346 
	C148.855423,180.833344 147.710449,180.833344 145.963837,180.833344 
	C146.472427,170.150208 147.978531,159.714142 151.049713,149.140411 
z"/>
<path fill="#96C13E" opacity="1.000000" stroke="none" 
	d="
M494.263916,180.857330 
	C494.175934,180.634735 494.352142,180.448334 494.687317,180.148712 
	C494.727295,180.309280 494.621246,180.595291 494.263916,180.857330 
z"/>
<path fill="#000000" opacity="1.000000" stroke="none" 
	d="
M384.042114,123.885132 
	C382.187561,120.584923 379.799988,117.468582 378.585419,113.947601 
	C375.743805,105.709763 382.882935,96.518234 390.526611,95.081978 
	C401.732971,92.976288 408.921814,97.441887 411.935577,108.413979 
	C412.655304,111.034409 411.381622,114.202400 410.674988,117.653259 
	C408.604645,120.112297 407.154266,122.407257 405.114563,123.893448 
	C398.185120,128.942459 391.068115,127.957970 384.042114,123.885132 
z"/>
<path fill="#000000" opacity="1.000000" stroke="none" 
	d="
M237.449951,124.774216 
	C230.927277,120.746254 227.644287,113.162209 229.487717,107.005592 
	C231.895203,98.965149 237.235474,95.004227 245.674149,95.000000 
	C256.217407,94.994720 262.944489,101.295082 263.017517,111.076645 
	C263.090210,120.813263 252.704391,129.139938 242.325302,126.685310 
	C240.766983,126.316772 239.304932,125.541237 237.449951,124.774216 
z"/>
<path fill="#96C13E" opacity="1.000000" stroke="none" 
	d="
M384.136414,124.218048 
	C391.068115,127.957970 398.185120,128.942459 405.114563,123.893448 
	C407.154266,122.407257 408.604645,120.112297 410.639160,118.039200 
	C413.389648,120.699051 411.789093,123.394669 410.171478,125.519997 
	C404.286011,133.252838 389.866608,132.608658 384.136414,124.218048 
z"/>
</svg>