<svg version="1.1" id="Layer_1" xmlns="http://www.w3.org/2000/svg" xmlns:xlink="http://www.w3.org/1999/xlink" x="0px" y="0px"
	 width="100%" viewBox="0 0 500 500" enable-background="new 0 0 500 500" xml:space="preserve">
<path fill="#000000" opacity="1.000000" stroke="none" 
	d="
M344.000000,501.000000 
	C229.333359,501.000000 115.166718,501.000000 1.000061,501.000000 
	C1.000041,334.333405 1.000041,167.666794 1.000020,1.000151 
	C167.666565,1.000100 334.333130,1.000100 500.999756,1.000050 
	C500.999847,167.666519 500.999847,334.333038 500.999939,500.999786 
	C448.833344,501.000000 396.666656,501.000000 344.000000,501.000000 
M123.284874,168.221710 
	C121.151718,170.467010 119.018562,172.712311 116.355644,175.155975 
	C115.889603,175.732529 115.423561,176.309082 114.345810,177.166306 
	C111.858978,179.763397 109.372147,182.360489 106.291771,185.215790 
	C105.528130,186.199402 104.764496,187.183014 103.336166,188.228256 
	C101.185631,190.804733 99.035103,193.381210 96.184509,196.010269 
	C94.183746,198.112183 92.222923,200.253876 90.175323,202.309113 
	C81.117775,211.400375 71.743172,220.199921 63.095898,229.664703 
	C59.277119,233.844528 55.935848,239.018372 54.105961,244.335678 
	C50.801640,253.937469 53.874638,263.135468 60.711487,270.015686 
	C116.982681,326.643616 173.487244,383.039886 230.022858,439.404266 
	C233.031158,442.403473 236.632660,445.302216 240.515594,446.837891 
	C252.679916,451.648865 263.232422,448.288239 272.310974,439.203522 
	C328.506317,382.970093 384.733704,326.768677 440.940796,270.546997 
	C451.918854,259.566071 451.873016,242.382339 440.852112,231.359818 
	C384.052551,174.551880 327.250092,117.746788 270.437622,60.951775 
	C259.678192,50.195660 242.355469,50.185795 231.606903,60.904755 
	C220.338562,72.142029 209.093887,83.403023 197.848434,94.663208 
	C196.818878,95.694107 195.858841,96.794426 194.679047,98.064285 
	C208.172684,111.588821 221.420197,124.928978 234.796417,138.138809 
	C235.727371,139.058167 237.628601,139.396530 239.054260,139.343979 
	C245.246399,139.115662 251.735809,137.238541 257.560883,138.509750 
	C278.624847,143.106598 286.123932,163.390427 280.018127,179.096130 
	C279.098114,181.462616 279.399933,183.091827 281.383728,185.024460 
	C292.007538,195.374252 302.728760,205.654602 312.791992,216.536346 
	C317.824249,221.977921 322.207977,224.813034 329.792847,221.414062 
	C333.319305,219.833755 338.092285,220.383255 342.171814,220.928223 
	C344.706787,221.266846 346.870911,224.125122 349.430450,224.588837 
	C354.950775,225.588928 357.445862,230.257721 359.908447,233.816849 
	C363.578827,239.121521 365.943451,245.340164 365.177277,252.565414 
	C364.230408,261.494537 363.004272,269.883179 355.007568,275.483154 
	C352.361176,277.336395 349.643127,279.087280 346.182190,280.982849 
	C343.788513,281.710785 341.394836,282.438721 338.099609,283.028320 
	C336.938538,283.018860 335.774139,283.062988 334.616882,282.991730 
	C321.568542,282.188446 310.992432,277.955780 305.742767,264.494415 
	C302.333923,255.753387 303.381073,247.485443 305.956940,238.304108 
	C296.104156,228.258438 286.251404,218.212769 275.749939,207.969681 
	C271.079102,204.567810 266.408264,201.165939 261.000000,197.226974 
	C261.000000,200.294159 261.000000,202.114288 261.000000,203.934433 
	C261.000000,234.882248 261.112366,265.830780 260.907928,296.777252 
	C260.865540,303.189758 260.709991,308.871948 269.255829,309.157104 
	C269.657227,309.170471 270.135345,309.633820 270.419403,310.007874 
	C276.659027,318.224365 284.719543,325.786041 281.933197,337.640930 
	C280.605164,343.291138 279.745605,349.582031 276.598358,354.153992 
	C271.442780,361.643463 263.819397,366.471161 253.151199,366.028229 
	C251.434021,366.074310 249.716843,366.120422 247.156448,366.028107 
	C234.592087,365.542847 226.831055,358.319977 222.253876,347.431122 
	C218.616653,338.778229 218.514877,329.892242 223.184509,321.347626 
	C223.564285,320.652679 223.606903,319.764740 224.019241,319.098297 
	C224.730835,317.948212 225.562683,316.862640 226.426895,315.818542 
	C229.976959,311.529572 234.096741,308.160553 239.625549,306.527435 
	C240.483658,306.273956 240.940170,303.379181 240.943924,301.704376 
	C241.018845,268.242981 240.946808,234.781174 241.082642,201.320160 
	C241.096100,198.003693 240.065018,196.316376 237.094910,194.950546 
	C223.292435,188.603409 215.504822,172.039429 222.151947,156.376007 
	C222.638245,155.230118 222.359970,153.010498 221.537796,152.174301 
	C213.146896,143.640198 204.569504,135.289474 195.777008,126.283501 
	C193.220322,123.839249 190.663635,121.394997 187.780624,118.341011 
	C186.601776,117.476120 185.264069,116.761841 184.274277,115.717743 
	C181.446411,112.734756 178.640732,112.864616 175.888809,115.628052 
	C158.536896,133.052521 141.217606,150.509506 123.284874,168.221710 
z"/>
<path fill="#F3501D" opacity="1.000000" stroke="none" 
	d="
M254.000336,366.166534 
	C263.819397,366.471161 271.442780,361.643463 276.598358,354.153992 
	C279.745605,349.582031 280.605164,343.291138 281.933197,337.640930 
	C284.719543,325.786041 276.659027,318.224365 270.419403,310.007874 
	C270.135345,309.633820 269.657227,309.170471 269.255829,309.157104 
	C260.709991,308.871948 260.865540,303.189758 260.907928,296.777252 
	C261.112366,265.830780 261.000000,234.882248 261.000000,203.934433 
	C261.000000,202.114288 261.000000,200.294159 261.000000,197.226974 
	C266.408264,201.165939 271.079102,204.567810 276.035461,208.475433 
	C277.226196,210.831268 277.742096,213.056244 279.101990,214.468628 
	C286.201721,221.842621 293.459595,229.068146 300.807007,236.196320 
	C302.137238,237.486862 304.140656,238.083496 305.833282,239.000488 
	C303.381073,247.485443 302.333923,255.753387 305.742767,264.494415 
	C310.992432,277.955780 321.568542,282.188446 334.616882,282.991730 
	C335.774139,283.062988 336.938538,283.018860 338.734528,283.376953 
	C343.140717,286.096039 345.434418,284.519409 346.957855,280.884979 
	C349.643127,279.087280 352.361176,277.336395 355.007568,275.483154 
	C363.004272,269.883179 364.230408,261.494537 365.177277,252.565414 
	C365.943451,245.340164 363.578827,239.121521 359.908447,233.816849 
	C357.445862,230.257721 354.950775,225.588928 349.430450,224.588837 
	C346.870911,224.125122 344.706787,221.266846 342.171814,220.928223 
	C338.092285,220.383255 333.319305,219.833755 329.792847,221.414062 
	C322.207977,224.813034 317.824249,221.977921 312.791992,216.536346 
	C302.728760,205.654602 292.007538,195.374252 281.383728,185.024460 
	C279.399933,183.091827 279.098114,181.462616 280.018127,179.096130 
	C286.123932,163.390427 278.624847,143.106598 257.560883,138.509750 
	C251.735809,137.238541 245.246399,139.115662 239.054260,139.343979 
	C237.628601,139.396530 235.727371,139.058167 234.796417,138.138809 
	C221.420197,124.928978 208.172684,111.588821 194.679047,98.064285 
	C195.858841,96.794426 196.818878,95.694107 197.848434,94.663208 
	C209.093887,83.403023 220.338562,72.142029 231.606903,60.904755 
	C242.355469,50.185795 259.678192,50.195660 270.437622,60.951775 
	C327.250092,117.746788 384.052551,174.551880 440.852112,231.359818 
	C451.873016,242.382339 451.918854,259.566071 440.940796,270.546997 
	C384.733704,326.768677 328.506317,382.970093 272.310974,439.203522 
	C263.232422,448.288239 252.679916,451.648865 240.515594,446.837891 
	C236.632660,445.302216 233.031158,442.403473 230.022858,439.404266 
	C173.487244,383.039886 116.982681,326.643616 60.711487,270.015686 
	C53.874638,263.135468 50.801640,253.937469 54.105961,244.335678 
	C55.935848,239.018372 59.277119,233.844528 63.095898,229.664703 
	C71.743172,220.199921 81.117775,211.400375 90.175323,202.309113 
	C92.222923,200.253876 94.183746,198.112183 96.917534,195.976929 
	C102.482613,195.568451 103.634491,192.188248 104.000870,188.166626 
	C104.764496,187.183014 105.528130,186.199402 106.981194,185.080917 
	C112.961014,184.846085 114.461678,181.320053 114.957527,176.885635 
	C115.423561,176.309082 115.889603,175.732529 117.003632,175.050842 
	C121.409531,174.113846 125.212379,173.322067 123.887535,167.955750 
	C141.217606,150.509506 158.536896,133.052521 175.888809,115.628052 
	C178.640732,112.864616 181.446411,112.734756 184.274277,115.717743 
	C185.264069,116.761841 186.601776,117.476120 187.775772,118.913361 
	C188.243896,124.262817 191.817474,127.459923 196.044250,126.887459 
	C204.569504,135.289474 213.146896,143.640198 221.537796,152.174301 
	C222.359970,153.010498 222.638245,155.230118 222.151947,156.376007 
	C215.504822,172.039429 223.292435,188.603409 237.094910,194.950546 
	C240.065018,196.316376 241.096100,198.003693 241.082642,201.320160 
	C240.946808,234.781174 241.018845,268.242981 240.943924,301.704376 
	C240.940170,303.379181 240.483658,306.273956 239.625549,306.527435 
	C234.096741,308.160553 229.976959,311.529572 226.426895,315.818542 
	C225.562683,316.862640 224.730835,317.948212 224.019241,319.098297 
	C223.606903,319.764740 223.564285,320.652679 223.184509,321.347626 
	C218.514877,329.892242 218.616653,338.778229 222.253876,347.431122 
	C226.831055,358.319977 234.592087,365.542847 247.658264,366.436035 
	C250.494156,369.957489 252.463348,369.925018 254.000336,366.166534 
z"/>
<path fill="#F3501D" opacity="1.000000" stroke="none" 
	d="
M305.895111,238.652298 
	C304.140656,238.083496 302.137238,237.486862 300.807007,236.196320 
	C293.459595,229.068146 286.201721,221.842621 279.101990,214.468628 
	C277.742096,213.056244 277.226196,210.831268 276.359802,208.574127 
	C286.251404,218.212769 296.104156,228.258438 305.895111,238.652298 
z"/>
<path fill="#F3501D" opacity="1.000000" stroke="none" 
	d="
M195.910629,126.585480 
	C191.817474,127.459923 188.243896,124.262817 187.938934,119.218231 
	C190.663635,121.394997 193.220322,123.839249 195.910629,126.585480 
z"/>
<path fill="#F3501D" opacity="1.000000" stroke="none" 
	d="
M103.668518,188.197449 
	C103.634491,192.188248 102.482613,195.568451 97.267563,195.950638 
	C99.035103,193.381210 101.185631,190.804733 103.668518,188.197449 
z"/>
<path fill="#F3501D" opacity="1.000000" stroke="none" 
	d="
M114.651672,177.025970 
	C114.461678,181.320053 112.961014,184.846085 107.277969,184.951813 
	C109.372147,182.360489 111.858978,179.763397 114.651672,177.025970 
z"/>
<path fill="#F3501D" opacity="1.000000" stroke="none" 
	d="
M123.586205,168.088730 
	C125.212379,173.322067 121.409531,174.113846 117.268509,174.951660 
	C119.018562,172.712311 121.151718,170.467010 123.586205,168.088730 
z"/>
<path fill="#F3501D" opacity="1.000000" stroke="none" 
	d="
M346.570007,280.933899 
	C345.434418,284.519409 343.140717,286.096039 339.185303,283.446106 
	C341.394836,282.438721 343.788513,281.710785 346.570007,280.933899 
z"/>
<path fill="#F3501D" opacity="1.000000" stroke="none" 
	d="
M253.575775,366.097382 
	C252.463348,369.925018 250.494156,369.957489 248.079865,366.505249 
	C249.716843,366.120422 251.434021,366.074310 253.575775,366.097382 
z"/>
</svg>