<svg version="1.1" id="Layer_1" xmlns="http://www.w3.org/2000/svg" xmlns:xlink="http://www.w3.org/1999/xlink" x="0px" y="0px"
	 width="100%" viewBox="0 0 4096 4096" enable-background="new 0 0 4096 4096" xml:space="preserve">
<path fill="#000000" opacity="1.000000" stroke="none" 
	d="
M2.000000,1432.000000 
	C2.000000,954.666687 2.000000,478.333344 2.000000,2.000000 
	C1367.333374,2.000000 2732.666748,2.000000 4098.000000,2.000000 
	C4098.000000,1367.333374 4098.000000,2732.666748 4098.000000,4098.000000 
	C2732.666748,4098.000000 1367.333374,4098.000000 2.000001,4098.000000 
	C2.000000,3209.666748 2.000000,2321.333252 2.000000,1432.000000 
M2969.999512,273.004303 
	C2909.836914,241.967316 2848.318848,213.900452 2785.356689,189.029846 
	C2707.444580,158.253860 2627.829590,132.707520 2546.616699,112.207100 
	C2484.851562,96.615952 2422.499756,83.685448 2359.422852,74.792038 
	C2317.210693,68.840393 2274.775635,64.392220 2232.374756,59.888855 
	C2212.193604,57.745434 2191.870850,56.826092 2171.591553,55.740334 
	C2144.667480,54.298813 2117.728271,52.388241 2090.786133,52.223526 
	C2056.158936,52.011822 2021.518677,53.199093 1986.890503,54.044674 
	C1967.252686,54.524212 1947.577393,54.888733 1928.008057,56.434402 
	C1894.808960,59.056602 1861.641357,62.210152 1828.530029,65.784248 
	C1749.554932,74.308968 1671.580322,88.691711 1594.311401,106.960114 
	C1532.304321,121.620186 1471.355347,139.901718 1411.090698,160.573486 
	C1346.074585,182.875107 1282.584229,208.908539 1220.317993,237.932892 
	C1177.417969,257.929901 1135.426147,279.716766 1094.070435,302.773651 
	C1022.938171,342.431763 954.679199,386.522186 889.101196,434.753784 
	C845.061707,467.144257 802.036194,500.865234 761.355408,537.427246 
	C729.904846,565.693604 698.368164,593.917053 668.052856,623.377075 
	C643.472656,647.263916 620.205261,672.556580 597.173584,697.967102 
	C572.797974,724.860535 548.756226,752.108826 525.680176,780.117920 
	C463.480743,855.613831 407.643799,935.656311 357.303162,1019.521606 
	C314.023254,1091.624023 275.679871,1166.318237 241.699936,1243.200928 
	C191.715424,1356.295532 152.840302,1473.138672 124.487816,1593.532227 
	C94.908760,1719.134277 77.786575,1846.447998 72.529900,1975.257446 
	C71.108627,2010.083984 69.927902,2045.081299 71.754944,2080.055664 
	C73.213768,2107.981689 73.149246,2135.983887 74.031265,2163.943848 
	C74.524620,2179.583008 75.068047,2195.250244 76.469688,2210.825195 
	C79.305962,2242.342041 82.395164,2273.844727 85.999550,2305.282227 
	C94.895081,2382.868896 109.329346,2459.494873 127.441574,2535.418213 
	C144.860657,2608.436035 167.005493,2680.053223 192.472260,2750.663330 
	C211.710098,2804.002930 233.429520,2856.326416 257.096710,2907.819092 
	C278.394440,2954.157227 301.863037,2999.412354 326.778442,3043.935547 
	C367.525177,3116.748291 412.495361,3186.811768 461.994263,3253.968018 
	C494.632446,3298.249023 528.573547,3341.513428 565.298706,3382.491211 
	C593.076355,3413.485352 620.840881,3444.539551 649.819275,3474.394043 
	C673.227112,3498.509521 698.213440,3521.117920 722.920349,3543.938965 
	C742.978027,3562.465576 763.319458,3580.718018 784.138062,3598.381104 
	C826.086060,3633.969482 869.611450,3667.553955 914.479187,3699.410645 
	C983.326477,3748.293213 1054.837891,3792.885254 1129.371460,3832.531982 
	C1172.322388,3855.378662 1216.029785,3876.736084 1260.541016,3896.454102 
	C1342.346191,3932.693115 1426.215820,3963.234131 1512.171631,3987.962646 
	C1592.656616,4011.117432 1674.286621,4029.251953 1757.111938,4041.853516 
	C1803.573364,4048.922363 1850.163818,4054.921143 1897.066650,4058.198242 
	C1917.990601,4059.659912 1938.916382,4061.166016 1959.863037,4062.218262 
	C1989.119995,4063.688232 2018.388428,4065.379639 2047.668579,4065.790771 
	C2070.954346,4066.117920 2094.267090,4064.726074 2117.564209,4063.989990 
	C2138.864502,4063.316650 2160.212158,4063.183838 2181.446777,4061.587402 
	C2215.317139,4059.041016 2249.141846,4055.772705 2282.931885,4052.286377 
	C2362.294922,4044.098633 2440.621094,4029.708252 2518.205078,4011.355469 
	C2597.427734,3992.614746 2675.221191,3969.015137 2751.476562,3940.448242 
	C2803.306641,3921.031250 2854.387207,3899.775146 2904.229736,3875.719727 
	C2936.032471,3860.370850 2967.295654,3843.894043 2998.664795,3827.660156 
	C3046.964844,3802.664551 3093.221436,3774.161377 3138.835938,3744.645264 
	C3188.390869,3712.579346 3236.055176,3677.819336 3282.596924,3641.524902 
	C3328.868408,3605.441162 3373.520752,3567.369873 3415.801025,3526.759033 
	C3472.511963,3472.287109 3528.026855,3416.519531 3577.529297,3355.226562 
	C3606.412109,3319.464355 3635.214111,3283.578369 3662.496338,3246.599365 
	C3686.217773,3214.446777 3708.745361,3181.304443 3729.999756,3147.468262 
	C3756.221191,3105.724854 3781.501709,3063.325195 3805.508789,3020.272461 
	C3835.220459,2966.989502 3861.094727,2911.733887 3885.204102,2855.666748 
	C3920.282959,2774.090088 3949.750000,2690.527100 3973.601562,2605.023682 
	C3995.652344,2525.974609 4013.488770,2445.942627 4025.022461,2364.657715 
	C4031.058350,2322.120361 4035.509521,2279.348389 4040.102051,2236.620605 
	C4042.235352,2216.770996 4043.126709,2196.781982 4044.351318,2176.842041 
	C4045.698242,2154.914307 4047.809082,2132.968262 4047.760498,2111.033936 
	C4047.664551,2068.069336 4049.575684,2025.085938 4046.225098,1982.125122 
	C4043.611084,1948.610352 4043.271729,1914.895996 4039.977051,1881.461914 
	C4035.273682,1833.732178 4030.091064,1785.978516 4022.820557,1738.586792 
	C4003.713623,1614.042114 3972.411377,1492.501831 3929.720703,1373.908936 
	C3894.206299,1275.252075 3851.631592,1179.819214 3801.169189,1087.857422 
	C3773.888672,1038.142090 3744.580078,989.693298 3713.453857,942.340942 
	C3677.180176,887.157227 3638.171631,833.908081 3595.894043,783.189514 
	C3565.408691,746.617554 3534.724365,710.068359 3501.937500,675.592773 
	C3457.873047,629.258240 3412.364746,584.280273 3363.876953,542.388916 
	C3325.022461,508.820099 3285.792236,475.716614 3244.284668,445.542725 
	C3204.948242,416.946960 3164.866699,389.316223 3124.305420,362.481049 
	C3075.084473,329.916382 3023.664795,300.966339 2969.999512,273.004303 
z"/>
<path fill="#120606" opacity="1.000000" stroke="none" 
	d="
M2970.666016,273.338135 
	C3023.664795,300.966339 3075.084473,329.916382 3124.305420,362.481049 
	C3164.866699,389.316223 3204.948242,416.946960 3244.284668,445.542725 
	C3285.792236,475.716614 3325.022461,508.820099 3363.876953,542.388916 
	C3412.364746,584.280273 3457.873047,629.258240 3501.937500,675.592773 
	C3534.724365,710.068359 3565.408691,746.617554 3595.894043,783.189514 
	C3638.171631,833.908081 3677.180176,887.157227 3713.453857,942.340942 
	C3744.580078,989.693298 3773.888672,1038.142090 3801.169189,1087.857422 
	C3851.631592,1179.819214 3894.206299,1275.252075 3929.720703,1373.908936 
	C3972.411377,1492.501831 4003.713623,1614.042114 4022.820557,1738.586792 
	C4030.091064,1785.978516 4035.273682,1833.732178 4039.977051,1881.461914 
	C4043.271729,1914.895996 4043.611084,1948.610352 4046.225098,1982.125122 
	C4049.575684,2025.085938 4047.664551,2068.069336 4047.760498,2111.033936 
	C4047.809082,2132.968262 4045.698242,2154.914307 4044.351318,2176.842041 
	C4043.126709,2196.781982 4042.235352,2216.770996 4040.102051,2236.620605 
	C4035.509521,2279.348389 4031.058350,2322.120361 4025.022461,2364.657715 
	C4013.488770,2445.942627 3995.652344,2525.974609 3973.601562,2605.023682 
	C3949.750000,2690.527100 3920.282959,2774.090088 3885.204102,2855.666748 
	C3861.094727,2911.733887 3835.220459,2966.989502 3805.508789,3020.272461 
	C3781.501709,3063.325195 3756.221191,3105.724854 3729.999756,3147.468262 
	C3708.745361,3181.304443 3686.217773,3214.446777 3662.496338,3246.599365 
	C3635.214111,3283.578369 3606.412109,3319.464355 3577.529297,3355.226562 
	C3528.026855,3416.519531 3472.511963,3472.287109 3415.801025,3526.759033 
	C3373.520752,3567.369873 3328.868408,3605.441162 3282.596924,3641.524902 
	C3236.055176,3677.819336 3188.390869,3712.579346 3138.835938,3744.645264 
	C3093.221436,3774.161377 3046.964844,3802.664551 2998.664795,3827.660156 
	C2967.295654,3843.894043 2936.032471,3860.370850 2904.229736,3875.719727 
	C2854.387207,3899.775146 2803.306641,3921.031250 2751.476562,3940.448242 
	C2675.221191,3969.015137 2597.427734,3992.614746 2518.205078,4011.355469 
	C2440.621094,4029.708252 2362.294922,4044.098633 2282.931885,4052.286377 
	C2249.141846,4055.772705 2215.317139,4059.041016 2181.446777,4061.587402 
	C2160.212158,4063.183838 2138.864502,4063.316650 2117.564209,4063.989990 
	C2094.267090,4064.726074 2070.954346,4066.117920 2047.668579,4065.790771 
	C2018.388428,4065.379639 1989.119995,4063.688232 1959.863037,4062.218262 
	C1938.916382,4061.166016 1917.990601,4059.659912 1897.066650,4058.198242 
	C1850.163818,4054.921143 1803.573364,4048.922363 1757.111938,4041.853516 
	C1674.286621,4029.251953 1592.656616,4011.117432 1512.171631,3987.962646 
	C1426.215820,3963.234131 1342.346191,3932.693115 1260.541016,3896.454102 
	C1216.029785,3876.736084 1172.322388,3855.378662 1129.371460,3832.531982 
	C1054.837891,3792.885254 983.326477,3748.293213 914.479187,3699.410645 
	C869.611450,3667.553955 826.086060,3633.969482 784.138062,3598.381104 
	C763.319458,3580.718018 742.978027,3562.465576 722.920349,3543.938965 
	C698.213440,3521.117920 673.227112,3498.509521 649.819275,3474.394043 
	C620.840881,3444.539551 593.076355,3413.485352 565.298706,3382.491211 
	C528.573547,3341.513428 494.632446,3298.249023 461.994263,3253.968018 
	C412.495361,3186.811768 367.525177,3116.748291 326.778442,3043.935547 
	C301.863037,2999.412354 278.394440,2954.157227 257.096710,2907.819092 
	C233.429520,2856.326416 211.710098,2804.002930 192.472260,2750.663330 
	C167.005493,2680.053223 144.860657,2608.436035 127.441574,2535.418213 
	C109.329346,2459.494873 94.895081,2382.868896 85.999550,2305.282227 
	C82.395164,2273.844727 79.305962,2242.342041 76.469688,2210.825195 
	C75.068047,2195.250244 74.524620,2179.583008 74.031265,2163.943848 
	C73.149246,2135.983887 73.213768,2107.981689 71.754944,2080.055664 
	C69.927902,2045.081299 71.108627,2010.083984 72.529900,1975.257446 
	C77.786575,1846.447998 94.908760,1719.134277 124.487816,1593.532227 
	C152.840302,1473.138672 191.715424,1356.295532 241.699936,1243.200928 
	C275.679871,1166.318237 314.023254,1091.624023 357.303162,1019.521606 
	C407.643799,935.656311 463.480743,855.613831 525.680176,780.117920 
	C548.756226,752.108826 572.797974,724.860535 597.173584,697.967102 
	C620.205261,672.556580 643.472656,647.263916 668.052856,623.377075 
	C698.368164,593.917053 729.904846,565.693604 761.355408,537.427246 
	C802.036194,500.865234 845.061707,467.144257 889.101196,434.753784 
	C954.679199,386.522186 1022.938171,342.431763 1094.070435,302.773651 
	C1135.426147,279.716766 1177.417969,257.929901 1220.317993,237.932892 
	C1282.584229,208.908539 1346.074585,182.875107 1411.090698,160.573486 
	C1471.355347,139.901718 1532.304321,121.620186 1594.311401,106.960114 
	C1671.580322,88.691711 1749.554932,74.308968 1828.530029,65.784248 
	C1861.641357,62.210152 1894.808960,59.056602 1928.008057,56.434402 
	C1947.577393,54.888733 1967.252686,54.524212 1986.890503,54.044674 
	C2021.518677,53.199093 2056.158936,52.011822 2090.786133,52.223526 
	C2117.728271,52.388241 2144.667480,54.298813 2171.591553,55.740334 
	C2191.870850,56.826092 2212.193604,57.745434 2232.374756,59.888855 
	C2274.775635,64.392220 2317.210693,68.840393 2359.422852,74.792038 
	C2422.499756,83.685448 2484.851562,96.615952 2546.616699,112.207100 
	C2627.829590,132.707520 2707.444580,158.253860 2785.356689,189.029846 
	C2848.318848,213.900452 2909.836914,241.967316 2970.666016,273.338135 
M2776.852783,1229.771729 
	C2783.948486,1226.900391 2790.958252,1223.788818 2798.158447,1221.209351 
	C2812.264404,1216.155762 2826.257568,1210.632446 2841.462402,1209.565430 
	C2858.047119,1208.401855 2869.127441,1214.280640 2876.166016,1229.318359 
	C2879.962891,1237.431274 2882.996826,1245.990112 2885.495605,1254.602905 
	C2889.858643,1269.642090 2893.823730,1284.811157 2897.461426,1300.043823 
	C2912.438721,1362.756958 2917.761963,1426.233032 2912.248047,1490.564087 
	C2908.265137,1537.038086 2897.727783,1581.978516 2881.382324,1625.613525 
	C2879.512451,1630.604858 2877.820801,1635.666748 2876.175537,1640.737793 
	C2870.980469,1656.751587 2875.574707,1670.208984 2887.059082,1681.816895 
	C2894.769043,1689.610229 2902.625977,1697.263062 2910.190186,1705.195068 
	C2934.290039,1730.466919 2953.678955,1759.118286 2969.894775,1789.923462 
	C2993.382568,1834.543213 3007.641357,1882.350952 3018.086670,1931.444702 
	C3029.682129,1985.944336 3038.312256,2040.916504 3043.452637,2096.384277 
	C3046.278320,2126.879395 3049.380127,2157.479004 3049.625488,2188.053467 
	C3050.031982,2238.673828 3051.282959,2289.313721 3048.365723,2339.967773 
	C3046.331543,2375.284424 3043.388428,2410.401123 3037.474365,2445.261719 
	C3026.698730,2508.782959 3007.379150,2569.507568 2978.474365,2627.187988 
	C2955.037842,2673.955322 2926.070801,2716.895508 2891.295410,2755.944336 
	C2863.551514,2787.097900 2834.129883,2816.560059 2801.563477,2842.677734 
	C2749.793457,2884.196045 2693.239990,2917.918213 2632.463867,2944.510010 
	C2561.244629,2975.671143 2486.939941,2996.519531 2410.538086,3010.199707 
	C2387.244385,3014.370117 2363.877930,3018.135010 2340.588867,3022.331543 
	C2331.634766,3023.945068 2330.470947,3026.765869 2334.593018,3034.621094 
	C2335.056885,3035.505127 2335.605957,3036.345215 2336.124512,3037.200195 
	C2354.674072,3067.775635 2370.131348,3099.846191 2382.539307,3133.382324 
	C2399.321289,3178.739990 2409.043701,3225.711426 2411.635986,3273.865967 
	C2413.675781,3311.760498 2413.864502,3349.785400 2413.847656,3387.752197 
	C2413.826172,3436.386475 2413.218750,3485.023682 2412.500732,3533.659668 
	C2410.926270,3640.302490 2412.003662,3746.984619 2412.020264,3853.650635 
	C2412.022949,3871.194092 2412.900879,3872.575684 2430.222412,3869.367432 
	C2460.024658,3863.847168 2489.864502,3858.197510 2519.257812,3850.873047 
	C2574.930420,3836.999512 2629.297607,3818.780029 2683.009521,3798.627686 
	C2744.519287,3775.550049 2805.171143,3750.423096 2863.880371,3720.889893 
	C2893.338623,3706.070801 2922.374512,3690.367188 2951.194336,3674.332275 
	C3013.605957,3639.606689 3073.150635,3600.349365 3130.809570,3558.269775 
	C3177.664551,3524.075684 3223.338379,3488.340332 3266.119873,3449.086914 
	C3294.336914,3423.197021 3322.700439,3397.430664 3350.036865,3370.628174 
	C3370.945312,3350.127686 3390.771240,3328.470459 3410.308838,3306.638916 
	C3433.626709,3280.582520 3456.769775,3254.317871 3478.848389,3227.214844 
	C3533.657227,3159.933350 3583.252930,3088.949463 3627.676270,3014.358154 
	C3652.587158,2972.530762 3676.230469,2930.020508 3697.739502,2886.351074 
	C3707.896240,2865.729980 3717.459229,2844.811768 3727.058594,2823.921143 
	C3748.924805,2776.334961 3768.171143,2727.671143 3785.489502,2678.275146 
	C3818.083252,2585.310303 3843.590088,2490.406738 3860.519043,2393.337402 
	C3867.443604,2353.631836 3873.126221,2313.673096 3878.044434,2273.666016 
	C3881.860840,2242.616943 3883.657471,2211.318115 3886.269531,2180.123535 
	C3888.911133,2148.578613 3890.532959,2116.987305 3890.000732,2085.317627 
	C3889.395752,2049.349854 3889.326660,2013.359131 3887.900879,1977.423096 
	C3886.567627,1943.830322 3884.686279,1910.205688 3881.415527,1876.754517 
	C3874.437988,1805.393677 3863.308594,1734.645264 3848.408691,1664.461304 
	C3826.480713,1561.172119 3796.149658,1460.472534 3757.308838,1362.312378 
	C3730.542480,1294.666504 3699.281006,1229.132202 3664.668701,1165.170410 
	C3641.019775,1121.467896 3615.399902,1078.949463 3588.250732,1037.338623 
	C3550.324707,979.210693 3509.373535,923.287476 3464.507080,870.349792 
	C3437.383789,838.347168 3409.747314,806.696594 3380.882324,776.272034 
	C3338.680176,731.789612 3293.944336,689.878540 3247.312256,649.978271 
	C3196.092529,606.152161 3142.584229,565.364441 3086.936279,527.400269 
	C3027.967285,487.170380 2966.699951,450.770020 2903.517334,417.463104 
	C2855.989258,392.408386 2807.353760,369.863739 2757.829102,349.198578 
	C2686.072510,319.256927 2612.781738,293.557129 2537.570557,273.806976 
	C2493.753906,262.300934 2449.666504,251.431183 2405.193359,242.929443 
	C2358.100586,233.926849 2310.559570,226.754166 2262.930908,221.218872 
	C2216.989746,215.879669 2170.735840,211.669952 2124.531494,210.536942 
	C2061.961426,209.002609 1999.247681,207.958252 1936.740845,213.806900 
	C1902.254272,217.033722 1867.691650,219.649612 1833.311646,223.776367 
	C1713.778320,238.124390 1596.945435,264.846802 1482.790649,302.941864 
	C1435.062622,318.869354 1387.955933,336.587433 1341.771118,356.732697 
	C1285.216187,381.401276 1229.669312,408.037842 1175.775391,438.102600 
	C1130.635620,463.283813 1086.544434,490.184509 1043.645142,519.002075 
	C996.029907,550.987488 949.796021,584.918884 905.910339,621.848511 
	C871.263550,651.003601 836.853271,680.549805 803.915710,711.596130 
	C768.294800,745.171753 733.607361,779.837769 701.774231,817.147339 
	C674.534851,849.072876 646.710083,880.557739 620.759399,913.509583 
	C585.497314,958.285034 552.619019,1004.843689 521.873962,1052.910645 
	C473.302673,1128.847290 430.156891,1207.672852 392.980682,1289.796509 
	C368.080078,1344.802612 345.777985,1400.828125 326.396393,1457.996216 
	C303.151825,1526.558472 283.854584,1596.227783 268.813843,1667.063843 
	C254.955399,1732.332031 244.435471,1798.128906 237.974930,1864.536133 
	C235.363846,1891.375244 233.623154,1918.304443 231.817184,1945.214722 
	C230.301529,1967.798828 228.486633,1990.404541 228.176636,2013.019531 
	C227.477997,2063.983887 227.633301,2114.959717 231.825241,2165.821533 
	C234.451172,2197.682617 236.540024,2229.598633 239.801865,2261.394287 
	C248.728500,2348.409424 264.575562,2434.264160 285.437592,2519.153809 
	C300.637146,2581.002930 319.130615,2641.906982 340.841095,2701.830322 
	C363.230042,2763.626465 388.778015,2824.073975 417.693878,2883.067139 
	C430.154510,2908.488770 443.735687,2933.372070 457.201324,2958.287598 
	C483.533051,3007.008545 512.983032,3053.845215 544.240417,3099.523682 
	C580.966187,3153.193359 619.811340,3205.310791 662.748047,3254.201416 
	C692.408264,3287.973877 722.276062,3321.628906 753.454102,3353.984131 
	C779.082886,3380.580566 806.259766,3405.759521 833.692566,3430.523193 
	C864.835327,3458.636475 896.435059,3486.310547 928.892517,3512.885254 
	C985.437561,3559.181885 1045.321777,3600.967529 1107.489380,3639.340332 
	C1185.602661,3687.555664 1267.020142,3729.465820 1351.648438,3765.151123 
	C1448.644653,3806.051270 1548.537476,3837.907227 1650.913574,3862.137939 
	C1656.732788,3863.515381 1662.699463,3864.627441 1668.651733,3865.002197 
	C1677.712158,3865.572510 1683.175659,3861.172119 1684.987183,3852.267578 
	C1685.776978,3848.385010 1685.949341,3844.323242 1685.951904,3840.342529 
	C1686.005127,3760.343018 1686.005493,3680.343506 1685.956055,3600.343994 
	C1685.953491,3596.362549 1685.829102,3592.293213 1685.024902,3588.417725 
	C1683.071655,3579.003906 1678.051025,3574.692627 1668.365112,3574.273193 
	C1663.409546,3574.058594 1658.360596,3574.464111 1653.443604,3575.193604 
	C1641.248169,3577.002441 1629.094360,3579.100830 1616.941650,3581.187012 
	C1574.340820,3588.500244 1531.336670,3589.804932 1488.377686,3587.456543 
	C1446.411865,3585.162598 1404.924683,3578.657471 1364.189209,3567.658691 
	C1323.690186,3556.723633 1285.205322,3540.922607 1249.104492,3519.822754 
	C1207.168579,3495.313232 1169.501709,3465.371338 1137.265137,3428.639648 
	C1114.982422,3403.250000 1093.987549,3376.973633 1077.396606,3347.574463 
	C1065.458740,3326.420654 1054.915649,3304.452393 1044.346924,3282.559326 
	C1028.528687,3249.791748 1010.856323,3218.137939 990.923645,3187.676514 
	C967.570862,3151.988525 945.701355,3115.338379 919.331238,3081.660889 
	C888.671021,3042.504639 854.006165,3007.849365 811.151550,2981.984375 
	C807.170654,2979.581543 803.126038,2977.048340 799.786987,2973.866211 
	C792.378174,2966.805420 788.135315,2958.445557 791.608032,2947.823730 
	C794.974426,2937.527588 802.987488,2933.555420 812.910461,2932.415527 
	C842.833679,2928.978516 872.766968,2928.549072 902.601379,2933.172363 
	C985.963379,2946.090820 1051.008179,2989.951904 1103.173340,3054.180420 
	C1119.494751,3074.276123 1133.023071,3096.700928 1147.167114,3118.489990 
	C1167.524048,3149.849609 1188.835938,3180.239502 1215.520752,3206.836670 
	C1262.288696,3253.451172 1317.495728,3286.027100 1379.465820,3307.294922 
	C1445.541870,3329.972168 1513.461792,3335.969971 1582.623657,3325.720459 
	C1610.720703,3321.556641 1638.183716,3314.768311 1664.204468,3302.928467 
	C1674.607544,3298.194824 1681.173218,3290.197754 1684.672729,3279.608887 
	C1686.232788,3274.888428 1687.337280,3269.959961 1688.089233,3265.040283 
	C1691.512817,3242.644043 1694.121704,3220.105713 1698.152344,3197.822754 
	C1708.888794,3138.468750 1728.015381,3082.377686 1764.359009,3033.253174 
	C1766.374146,3030.529297 1767.608398,3027.227539 1769.739502,3023.181885 
	C1764.975830,3022.021973 1761.838257,3021.049805 1758.627808,3020.515869 
	C1749.751709,3019.039062 1740.848145,3017.726074 1731.950195,3016.382568 
	C1622.752563,2999.895996 1517.787354,2969.978760 1419.391602,2918.777100 
	C1362.923584,2889.393311 1310.205933,2854.463379 1263.183960,2811.618896 
	C1230.177002,2781.544434 1199.352539,2749.192383 1173.635498,2712.318115 
	C1149.732788,2678.045166 1128.468628,2642.333008 1111.607178,2604.053955 
	C1090.280640,2555.637207 1075.191528,2505.350830 1065.184204,2453.406494 
	C1055.895874,2405.194092 1049.714966,2356.561768 1048.369385,2307.590576 
	C1046.713501,2247.324219 1046.836304,2186.959961 1053.869019,2126.906006 
	C1059.139160,2081.901855 1064.257202,2036.867310 1070.473389,1991.989136 
	C1077.528931,1941.052612 1088.341553,1890.931030 1106.721313,1842.665649 
	C1129.076172,1783.961792 1160.822144,1731.311890 1205.872559,1687.102417 
	C1210.392212,1682.667114 1214.791992,1678.109863 1219.260986,1673.622803 
	C1224.299683,1668.563843 1226.484009,1662.360107 1225.683472,1655.397949 
	C1225.117554,1650.474854 1223.968262,1645.559937 1222.531494,1640.807007 
	C1218.385254,1627.090576 1213.661743,1613.544189 1209.701050,1599.776855 
	C1195.332520,1549.830444 1188.411133,1498.822021 1187.956665,1446.856323 
	C1187.546631,1399.980835 1192.757690,1353.669189 1202.456787,1307.942139 
	C1207.772095,1282.882690 1214.425659,1258.009644 1222.172729,1233.590942 
	C1229.695557,1209.879272 1243.227051,1203.895630 1267.156616,1210.919434 
	C1269.073975,1211.482300 1270.962280,1212.148804 1272.849121,1212.810059 
	C1281.655396,1215.896851 1290.548828,1218.760742 1299.238770,1222.146973 
	C1314.753906,1228.192993 1330.397827,1234.002930 1345.535034,1240.904907 
	C1376.344360,1254.952637 1403.887695,1274.305054 1430.573364,1294.942871 
	C1463.092773,1320.092529 1492.895752,1348.206909 1519.609375,1379.360596 
	C1539.327637,1402.356079 1557.734131,1426.494751 1576.309814,1450.446167 
	C1591.679565,1470.263672 1601.863525,1472.929199 1622.852051,1459.123535 
	C1654.250488,1438.470215 1688.693604,1425.589111 1725.014160,1417.378418 
	C1815.368530,1396.953003 1906.885376,1386.376221 1999.544922,1386.016846 
	C2027.544189,1385.908203 2055.544434,1385.994995 2083.544189,1386.026733 
	C2087.875000,1386.031738 2092.209717,1386.139771 2096.535889,1386.343262 
	C2121.807129,1387.531738 2147.081543,1388.665405 2172.344727,1390.007080 
	C2198.277832,1391.384277 2224.296631,1392.026611 2250.105713,1394.671265 
	C2309.324951,1400.739258 2367.214600,1413.280640 2423.574951,1432.741577 
	C2438.557129,1437.914673 2452.400391,1444.846802 2465.094727,1454.265991 
	C2469.366699,1457.435791 2473.771240,1460.515381 2478.431641,1463.055908 
	C2492.383789,1470.660889 2503.569580,1469.896606 2515.172119,1459.188354 
	C2522.945557,1452.014648 2530.354248,1444.026611 2536.186768,1435.247192 
	C2554.714111,1407.357422 2576.843750,1382.472778 2599.354248,1357.934570 
	C2622.148193,1333.087402 2647.655762,1311.081909 2674.259521,1290.409668 
	C2705.458008,1266.167480 2739.294434,1246.281494 2776.852783,1229.771729 
z"/>
<path fill="#000000" opacity="1.000000" stroke="none" 
	d="
M2776.163574,1230.083008 
	C2739.294434,1246.281494 2705.458008,1266.167480 2674.259521,1290.409668 
	C2647.655762,1311.081909 2622.148193,1333.087402 2599.354248,1357.934570 
	C2576.843750,1382.472778 2554.714111,1407.357422 2536.186768,1435.247192 
	C2530.354248,1444.026611 2522.945557,1452.014648 2515.172119,1459.188354 
	C2503.569580,1469.896606 2492.383789,1470.660889 2478.431641,1463.055908 
	C2473.771240,1460.515381 2469.366699,1457.435791 2465.094727,1454.265991 
	C2452.400391,1444.846802 2438.557129,1437.914673 2423.574951,1432.741577 
	C2367.214600,1413.280640 2309.324951,1400.739258 2250.105713,1394.671265 
	C2224.296631,1392.026611 2198.277832,1391.384277 2172.344727,1390.007080 
	C2147.081543,1388.665405 2121.807129,1387.531738 2096.535889,1386.343262 
	C2092.209717,1386.139771 2087.875000,1386.031738 2083.544189,1386.026733 
	C2055.544434,1385.994995 2027.544189,1385.908203 1999.544922,1386.016846 
	C1906.885376,1386.376221 1815.368530,1396.953003 1725.014160,1417.378418 
	C1688.693604,1425.589111 1654.250488,1438.470215 1622.852051,1459.123535 
	C1601.863525,1472.929199 1591.679565,1470.263672 1576.309814,1450.446167 
	C1557.734131,1426.494751 1539.327637,1402.356079 1519.609375,1379.360596 
	C1492.895752,1348.206909 1463.092773,1320.092529 1430.573364,1294.942871 
	C1403.887695,1274.305054 1376.344360,1254.952637 1345.535034,1240.904907 
	C1330.397827,1234.002930 1314.753906,1228.192993 1299.238770,1222.146973 
	C1290.548828,1218.760742 1281.655396,1215.896851 1272.849121,1212.810059 
	C1270.962280,1212.148804 1269.073975,1211.482300 1267.156616,1210.919434 
	C1243.227051,1203.895630 1229.695557,1209.879272 1222.172729,1233.590942 
	C1214.425659,1258.009644 1207.772095,1282.882690 1202.456787,1307.942139 
	C1192.757690,1353.669189 1187.546631,1399.980835 1187.956665,1446.856323 
	C1188.411133,1498.822021 1195.332520,1549.830444 1209.701050,1599.776855 
	C1213.661743,1613.544189 1218.385254,1627.090576 1222.531494,1640.807007 
	C1223.968262,1645.559937 1225.117554,1650.474854 1225.683472,1655.397949 
	C1226.484009,1662.360107 1224.299683,1668.563843 1219.260986,1673.622803 
	C1214.791992,1678.109863 1210.392212,1682.667114 1205.872559,1687.102417 
	C1160.822144,1731.311890 1129.076172,1783.961792 1106.721313,1842.665649 
	C1088.341553,1890.931030 1077.528931,1941.052612 1070.473389,1991.989136 
	C1064.257202,2036.867310 1059.139160,2081.901855 1053.869019,2126.906006 
	C1046.836304,2186.959961 1046.713501,2247.324219 1048.369385,2307.590576 
	C1049.714966,2356.561768 1055.895874,2405.194092 1065.184204,2453.406494 
	C1075.191528,2505.350830 1090.280640,2555.637207 1111.607178,2604.053955 
	C1128.468628,2642.333008 1149.732788,2678.045166 1173.635498,2712.318115 
	C1199.352539,2749.192383 1230.177002,2781.544434 1263.183960,2811.618896 
	C1310.205933,2854.463379 1362.923584,2889.393311 1419.391602,2918.777100 
	C1517.787354,2969.978760 1622.752563,2999.895996 1731.950195,3016.382568 
	C1740.848145,3017.726074 1749.751709,3019.039062 1758.627808,3020.515869 
	C1761.838257,3021.049805 1764.975830,3022.021973 1769.739502,3023.181885 
	C1767.608398,3027.227539 1766.374146,3030.529297 1764.359009,3033.253174 
	C1728.015381,3082.377686 1708.888794,3138.468750 1698.152344,3197.822754 
	C1694.121704,3220.105713 1691.512817,3242.644043 1688.089233,3265.040283 
	C1687.337280,3269.959961 1686.232788,3274.888428 1684.672729,3279.608887 
	C1681.173218,3290.197754 1674.607544,3298.194824 1664.204468,3302.928467 
	C1638.183716,3314.768311 1610.720703,3321.556641 1582.623657,3325.720459 
	C1513.461792,3335.969971 1445.541870,3329.972168 1379.465820,3307.294922 
	C1317.495728,3286.027100 1262.288696,3253.451172 1215.520752,3206.836670 
	C1188.835938,3180.239502 1167.524048,3149.849609 1147.167114,3118.489990 
	C1133.023071,3096.700928 1119.494751,3074.276123 1103.173340,3054.180420 
	C1051.008179,2989.951904 985.963379,2946.090820 902.601379,2933.172363 
	C872.766968,2928.549072 842.833679,2928.978516 812.910461,2932.415527 
	C802.987488,2933.555420 794.974426,2937.527588 791.608032,2947.823730 
	C788.135315,2958.445557 792.378174,2966.805420 799.786987,2973.866211 
	C803.126038,2977.048340 807.170654,2979.581543 811.151550,2981.984375 
	C854.006165,3007.849365 888.671021,3042.504639 919.331238,3081.660889 
	C945.701355,3115.338379 967.570862,3151.988525 990.923645,3187.676514 
	C1010.856323,3218.137939 1028.528687,3249.791748 1044.346924,3282.559326 
	C1054.915649,3304.452393 1065.458740,3326.420654 1077.396606,3347.574463 
	C1093.987549,3376.973633 1114.982422,3403.250000 1137.265137,3428.639648 
	C1169.501709,3465.371338 1207.168579,3495.313232 1249.104492,3519.822754 
	C1285.205322,3540.922607 1323.690186,3556.723633 1364.189209,3567.658691 
	C1404.924683,3578.657471 1446.411865,3585.162598 1488.377686,3587.456543 
	C1531.336670,3589.804932 1574.340820,3588.500244 1616.941650,3581.187012 
	C1629.094360,3579.100830 1641.248169,3577.002441 1653.443604,3575.193604 
	C1658.360596,3574.464111 1663.409546,3574.058594 1668.365112,3574.273193 
	C1678.051025,3574.692627 1683.071655,3579.003906 1685.024902,3588.417725 
	C1685.829102,3592.293213 1685.953491,3596.362549 1685.956055,3600.343994 
	C1686.005493,3680.343506 1686.005127,3760.343018 1685.951904,3840.342529 
	C1685.949341,3844.323242 1685.776978,3848.385010 1684.987183,3852.267578 
	C1683.175659,3861.172119 1677.712158,3865.572510 1668.651733,3865.002197 
	C1662.699463,3864.627441 1656.732788,3863.515381 1650.913574,3862.137939 
	C1548.537476,3837.907227 1448.644653,3806.051270 1351.648438,3765.151123 
	C1267.020142,3729.465820 1185.602661,3687.555664 1107.489380,3639.340332 
	C1045.321777,3600.967529 985.437561,3559.181885 928.892517,3512.885254 
	C896.435059,3486.310547 864.835327,3458.636475 833.692566,3430.523193 
	C806.259766,3405.759521 779.082886,3380.580566 753.454102,3353.984131 
	C722.276062,3321.628906 692.408264,3287.973877 662.748047,3254.201416 
	C619.811340,3205.310791 580.966187,3153.193359 544.240417,3099.523682 
	C512.983032,3053.845215 483.533051,3007.008545 457.201324,2958.287598 
	C443.735687,2933.372070 430.154510,2908.488770 417.693878,2883.067139 
	C388.778015,2824.073975 363.230042,2763.626465 340.841095,2701.830322 
	C319.130615,2641.906982 300.637146,2581.002930 285.437592,2519.153809 
	C264.575562,2434.264160 248.728500,2348.409424 239.801865,2261.394287 
	C236.540024,2229.598633 234.451172,2197.682617 231.825241,2165.821533 
	C227.633301,2114.959717 227.477997,2063.983887 228.176636,2013.019531 
	C228.486633,1990.404541 230.301529,1967.798828 231.817184,1945.214722 
	C233.623154,1918.304443 235.363846,1891.375244 237.974930,1864.536133 
	C244.435471,1798.128906 254.955399,1732.332031 268.813843,1667.063843 
	C283.854584,1596.227783 303.151825,1526.558472 326.396393,1457.996216 
	C345.777985,1400.828125 368.080078,1344.802612 392.980682,1289.796509 
	C430.156891,1207.672852 473.302673,1128.847290 521.873962,1052.910645 
	C552.619019,1004.843689 585.497314,958.285034 620.759399,913.509583 
	C646.710083,880.557739 674.534851,849.072876 701.774231,817.147339 
	C733.607361,779.837769 768.294800,745.171753 803.915710,711.596130 
	C836.853271,680.549805 871.263550,651.003601 905.910339,621.848511 
	C949.796021,584.918884 996.029907,550.987488 1043.645142,519.002075 
	C1086.544434,490.184509 1130.635620,463.283813 1175.775391,438.102600 
	C1229.669312,408.037842 1285.216187,381.401276 1341.771118,356.732697 
	C1387.955933,336.587433 1435.062622,318.869354 1482.790649,302.941864 
	C1596.945435,264.846802 1713.778320,238.124390 1833.311646,223.776367 
	C1867.691650,219.649612 1902.254272,217.033722 1936.740845,213.806900 
	C1999.247681,207.958252 2061.961426,209.002609 2124.531494,210.536942 
	C2170.735840,211.669952 2216.989746,215.879669 2262.930908,221.218872 
	C2310.559570,226.754166 2358.100586,233.926849 2405.193359,242.929443 
	C2449.666504,251.431183 2493.753906,262.300934 2537.570557,273.806976 
	C2612.781738,293.557129 2686.072510,319.256927 2757.829102,349.198578 
	C2807.353760,369.863739 2855.989258,392.408386 2903.517334,417.463104 
	C2966.699951,450.770020 3027.967285,487.170380 3086.936279,527.400269 
	C3142.584229,565.364441 3196.092529,606.152161 3247.312256,649.978271 
	C3293.944336,689.878540 3338.680176,731.789612 3380.882324,776.272034 
	C3409.747314,806.696594 3437.383789,838.347168 3464.507080,870.349792 
	C3509.373535,923.287476 3550.324707,979.210693 3588.250732,1037.338623 
	C3615.399902,1078.949463 3641.019775,1121.467896 3664.668701,1165.170410 
	C3699.281006,1229.132202 3730.542480,1294.666504 3757.308838,1362.312378 
	C3796.149658,1460.472534 3826.480713,1561.172119 3848.408691,1664.461304 
	C3863.308594,1734.645264 3874.437988,1805.393677 3881.415527,1876.754517 
	C3884.686279,1910.205688 3886.567627,1943.830322 3887.900879,1977.423096 
	C3889.326660,2013.359131 3889.395752,2049.349854 3890.000732,2085.317627 
	C3890.532959,2116.987305 3888.911133,2148.578613 3886.269531,2180.123535 
	C3883.657471,2211.318115 3881.860840,2242.616943 3878.044434,2273.666016 
	C3873.126221,2313.673096 3867.443604,2353.631836 3860.519043,2393.337402 
	C3843.590088,2490.406738 3818.083252,2585.310303 3785.489502,2678.275146 
	C3768.171143,2727.671143 3748.924805,2776.334961 3727.058594,2823.921143 
	C3717.459229,2844.811768 3707.896240,2865.729980 3697.739502,2886.351074 
	C3676.230469,2930.020508 3652.587158,2972.530762 3627.676270,3014.358154 
	C3583.252930,3088.949463 3533.657227,3159.933350 3478.848389,3227.214844 
	C3456.769775,3254.317871 3433.626709,3280.582520 3410.308838,3306.638916 
	C3390.771240,3328.470459 3370.945312,3350.127686 3350.036865,3370.628174 
	C3322.700439,3397.430664 3294.336914,3423.197021 3266.119873,3449.086914 
	C3223.338379,3488.340332 3177.664551,3524.075684 3130.809570,3558.269775 
	C3073.150635,3600.349365 3013.605957,3639.606689 2951.194336,3674.332275 
	C2922.374512,3690.367188 2893.338623,3706.070801 2863.880371,3720.889893 
	C2805.171143,3750.423096 2744.519287,3775.550049 2683.009521,3798.627686 
	C2629.297607,3818.780029 2574.930420,3836.999512 2519.257812,3850.873047 
	C2489.864502,3858.197510 2460.024658,3863.847168 2430.222412,3869.367432 
	C2412.900879,3872.575684 2412.022949,3871.194092 2412.020264,3853.650635 
	C2412.003662,3746.984619 2410.926270,3640.302490 2412.500732,3533.659668 
	C2413.218750,3485.023682 2413.826172,3436.386475 2413.847656,3387.752197 
	C2413.864502,3349.785400 2413.675781,3311.760498 2411.635986,3273.865967 
	C2409.043701,3225.711426 2399.321289,3178.739990 2382.539307,3133.382324 
	C2370.131348,3099.846191 2354.674072,3067.775635 2336.124512,3037.200195 
	C2335.605957,3036.345215 2335.056885,3035.505127 2334.593018,3034.621094 
	C2330.470947,3026.765869 2331.634766,3023.945068 2340.588867,3022.331543 
	C2363.877930,3018.135010 2387.244385,3014.370117 2410.538086,3010.199707 
	C2486.939941,2996.519531 2561.244629,2975.671143 2632.463867,2944.510010 
	C2693.239990,2917.918213 2749.793457,2884.196045 2801.563477,2842.677734 
	C2834.129883,2816.560059 2863.551514,2787.097900 2891.295410,2755.944336 
	C2926.070801,2716.895508 2955.037842,2673.955322 2978.474365,2627.187988 
	C3007.379150,2569.507568 3026.698730,2508.782959 3037.474365,2445.261719 
	C3043.388428,2410.401123 3046.331543,2375.284424 3048.365723,2339.967773 
	C3051.282959,2289.313721 3050.031982,2238.673828 3049.625488,2188.053467 
	C3049.380127,2157.479004 3046.278320,2126.879395 3043.452637,2096.384277 
	C3038.312256,2040.916504 3029.682129,1985.944336 3018.086670,1931.444702 
	C3007.641357,1882.350952 2993.382568,1834.543213 2969.894775,1789.923462 
	C2953.678955,1759.118286 2934.290039,1730.466919 2910.190186,1705.195068 
	C2902.625977,1697.263062 2894.769043,1689.610229 2887.059082,1681.816895 
	C2875.574707,1670.208984 2870.980469,1656.751587 2876.175537,1640.737793 
	C2877.820801,1635.666748 2879.512451,1630.604858 2881.382324,1625.613525 
	C2897.727783,1581.978516 2908.265137,1537.038086 2912.248047,1490.564087 
	C2917.761963,1426.233032 2912.438721,1362.756958 2897.461426,1300.043823 
	C2893.823730,1284.811157 2889.858643,1269.642090 2885.495605,1254.602905 
	C2882.996826,1245.990112 2879.962891,1237.431274 2876.166016,1229.318359 
	C2869.127441,1214.280640 2858.047119,1208.401855 2841.462402,1209.565430 
	C2826.257568,1210.632446 2812.264404,1216.155762 2798.158447,1221.209351 
	C2790.958252,1223.788818 2783.948486,1226.900391 2776.163574,1230.083008 
z"/>
</svg>