<svg version="1.1" id="Layer_1" xmlns="http://www.w3.org/2000/svg" xmlns:xlink="http://www.w3.org/1999/xlink" x="0px" y="0px"
	 width="100%" viewBox="0 0 256 256" enable-background="new 0 0 256 256" xml:space="preserve">
<path fill="#47704C" opacity="1.000000" stroke="none" 
	d="
M171.000000,257.000000 
	C114.000000,257.000000 57.500008,257.000000 1.000008,257.000000 
	C1.000005,171.666672 1.000005,86.333351 1.000003,1.000019 
	C86.333321,1.000013 171.666641,1.000013 257.000000,1.000006 
	C257.000000,86.333313 257.000000,171.666626 257.000000,256.999969 
	C228.500000,257.000000 200.000000,257.000000 171.000000,257.000000 
M5.018044,201.228958 
	C5.683767,205.823776 6.474593,210.405045 6.974443,215.017838 
	C7.353840,218.519012 9.165504,220.004333 12.557366,219.979416 
	C16.889200,219.947571 21.245359,219.706879 25.547468,220.070969 
	C30.534010,220.492996 32.750229,218.226608 33.918896,213.648300 
	C36.467846,203.662720 45.117348,195.753662 53.777294,195.053848 
	C66.807213,194.000900 77.290756,198.720825 80.581665,210.142105 
	C83.344604,219.731033 88.693520,220.923538 96.620270,220.012695 
	C97.278114,219.937103 97.952118,220.003235 98.618614,220.001862 
	C106.410378,219.985840 106.410370,219.985764 109.009377,212.558929 
	C113.343025,200.175217 122.457695,194.342346 136.401825,195.029327 
	C145.866714,195.495636 154.426620,203.484650 157.093292,214.358032 
	C157.990189,218.015167 159.939697,220.189713 164.063736,220.023361 
	C168.388931,219.848907 172.727402,219.927460 177.058441,219.996796 
	C180.924728,220.058716 182.682098,218.405273 183.052994,214.396637 
	C183.800369,206.318909 184.345947,198.128342 186.181473,190.266022 
	C189.508835,176.013519 195.118561,162.794266 206.680511,152.867767 
	C215.619720,145.193039 224.983734,137.853226 232.959961,129.252625 
	C246.350388,114.813980 255.116669,98.007912 252.921814,77.418297 
	C251.114609,60.465080 240.749954,44.582615 223.399109,39.750526 
	C209.335297,35.833847 196.382126,38.009392 185.420242,48.219929 
	C184.265320,49.295681 183.198074,51.478725 183.464111,52.888828 
	C184.529282,58.534569 191.938858,61.452183 197.001511,58.716309 
	C199.010086,57.630863 201.279404,56.887890 203.519318,56.394241 
	C214.609634,53.950073 225.375900,59.999268 228.982025,70.566734 
	C232.552292,81.029037 227.489258,92.116051 217.405838,97.351387 
	C209.004379,101.713455 201.175232,99.545975 193.489075,96.106735 
	C181.202820,90.609177 169.219040,84.432098 156.906494,78.997452 
	C124.082207,64.509109 91.360710,65.672470 58.994923,80.557236 
	C48.211658,85.516365 46.210896,92.979942 52.232693,103.288185 
	C57.009590,111.465378 61.743683,119.667992 66.438126,127.892784 
	C69.699776,133.607269 76.026886,136.387177 82.102562,133.979584 
	C86.695724,132.159454 91.200966,129.858536 95.298996,127.106865 
	C101.904129,122.671791 108.059494,117.570267 114.609863,113.047173 
	C115.790321,112.232056 117.956940,112.845108 119.668259,112.798798 
	C119.416328,114.382599 119.750275,116.647217 118.822479,117.445641 
	C108.744087,126.118622 98.478859,134.663818 86.022278,139.760696 
	C76.280273,143.746826 66.635017,140.320816 60.944759,131.356201 
	C58.722996,127.855972 56.884727,124.114723 54.780106,120.537186 
	C51.723091,115.340729 48.583019,110.193130 45.302578,104.732056 
	C28.708508,117.157768 17.463650,132.340134 10.802848,151.070389 
	C5.110492,167.077377 4.486818,183.589249 5.018044,201.228958 
z"/>
<path fill="#02303A" opacity="1.000000" stroke="none" 
	d="
M5.012167,200.754456 
	C4.486818,183.589249 5.110492,167.077377 10.802848,151.070389 
	C17.463650,132.340134 28.708508,117.157768 45.302578,104.732056 
	C48.583019,110.193130 51.723091,115.340729 54.780106,120.537186 
	C56.884727,124.114723 58.722996,127.855972 60.944759,131.356201 
	C66.635017,140.320816 76.280273,143.746826 86.022278,139.760696 
	C98.478859,134.663818 108.744087,126.118622 118.822479,117.445641 
	C119.750275,116.647217 119.416328,114.382599 119.668259,112.798798 
	C117.956940,112.845108 115.790321,112.232056 114.609863,113.047173 
	C108.059494,117.570267 101.904129,122.671791 95.298996,127.106865 
	C91.200966,129.858536 86.695724,132.159454 82.102562,133.979584 
	C76.026886,136.387177 69.699776,133.607269 66.438126,127.892784 
	C61.743683,119.667992 57.009590,111.465378 52.232693,103.288185 
	C46.210896,92.979942 48.211658,85.516365 58.994923,80.557236 
	C91.360710,65.672470 124.082207,64.509109 156.906494,78.997452 
	C169.219040,84.432098 181.202820,90.609177 193.489075,96.106735 
	C201.175232,99.545975 209.004379,101.713455 217.405838,97.351387 
	C227.489258,92.116051 232.552292,81.029037 228.982025,70.566734 
	C225.375900,59.999268 214.609634,53.950073 203.519318,56.394241 
	C201.279404,56.887890 199.010086,57.630863 197.001511,58.716309 
	C191.938858,61.452183 184.529282,58.534569 183.464111,52.888828 
	C183.198074,51.478725 184.265320,49.295681 185.420242,48.219929 
	C196.382126,38.009392 209.335297,35.833847 223.399109,39.750526 
	C240.749954,44.582615 251.114609,60.465080 252.921814,77.418297 
	C255.116669,98.007912 246.350388,114.813980 232.959961,129.252625 
	C224.983734,137.853226 215.619720,145.193039 206.680511,152.867767 
	C195.118561,162.794266 189.508835,176.013519 186.181473,190.266022 
	C184.345947,198.128342 183.800369,206.318909 183.052994,214.396637 
	C182.682098,218.405273 180.924728,220.058716 177.058441,219.996796 
	C172.727402,219.927460 168.388931,219.848907 164.063736,220.023361 
	C159.939697,220.189713 157.990189,218.015167 157.093292,214.358032 
	C154.426620,203.484650 145.866714,195.495636 136.401825,195.029327 
	C122.457695,194.342346 113.343025,200.175217 109.009377,212.558929 
	C106.410370,219.985764 106.410378,219.985840 98.618614,220.001862 
	C97.952118,220.003235 97.278114,219.937103 96.620270,220.012695 
	C88.693520,220.923538 83.344604,219.731033 80.581665,210.142105 
	C77.290756,198.720825 66.807213,194.000900 53.777294,195.053848 
	C45.117348,195.753662 36.467846,203.662720 33.918896,213.648300 
	C32.750229,218.226608 30.534010,220.492996 25.547468,220.070969 
	C21.245359,219.706879 16.889200,219.947571 12.557366,219.979416 
	C9.165504,220.004333 7.353840,218.519012 6.974443,215.017838 
	C6.474593,210.405045 5.683767,205.823776 5.012167,200.754456 
M168.287582,108.471352 
	C165.894516,109.872131 162.269272,111.401230 165.191956,114.558105 
	C167.398575,116.941528 171.138107,117.989929 174.334808,119.289566 
	C174.866592,119.505760 176.533554,118.154343 176.957138,117.206200 
	C179.127930,112.347061 175.300690,108.090790 168.287582,108.471352 
z"/>
<path fill="#47704C" opacity="1.000000" stroke="none" 
	d="
M168.660889,108.351280 
	C175.300690,108.090790 179.127930,112.347061 176.957138,117.206200 
	C176.533554,118.154343 174.866592,119.505760 174.334808,119.289566 
	C171.138107,117.989929 167.398575,116.941528 165.191956,114.558105 
	C162.269272,111.401230 165.894516,109.872131 168.660889,108.351280 
z"/>
</svg>