<svg version="1.1" id="Layer_1" xmlns="http://www.w3.org/2000/svg" xmlns:xlink="http://www.w3.org/1999/xlink" x="0px" y="0px"
	 width="100%" viewBox="0 0 1150 512" enable-background="new 0 0 1150 512" xml:space="preserve">
<path fill="#47704C" opacity="1.000000" stroke="none" 
	d="
M1151.000000,418.000000 
	C1151.000000,449.656616 1151.000000,481.313232 1151.000000,512.947632 
	C767.666687,512.947632 384.333313,512.947632 1.000000,512.947632 
	C1.000000,481.571930 1.000000,450.248627 1.266748,418.717773 
	C5.167393,436.303009 22.495720,449.285156 39.932705,449.176392 
	C108.897011,448.746307 177.865585,448.999420 246.901154,449.414429 
	C248.310181,459.519653 249.395355,469.254150 251.074005,478.885193 
	C252.354553,486.232300 254.234055,493.490509 256.216675,500.686432 
	C256.606384,502.100922 258.686768,503.049591 259.987457,504.213074 
	C260.351501,502.658722 260.788605,501.116241 261.043274,499.544159 
	C261.143433,498.925781 260.905304,498.219086 260.703888,497.590210 
	C255.172348,480.320068 253.486603,462.364227 253.275513,444.490021 
	C253.052414,425.597900 253.741028,406.522308 256.203552,387.812744 
	C259.663971,361.521271 264.288635,335.309998 269.952850,309.400543 
	C276.665070,278.697205 286.130585,248.729782 298.609497,219.769699 
	C310.793488,191.493973 324.229706,163.874619 339.797089,137.293869 
	C353.936859,113.150681 369.851196,90.265076 387.849976,68.848457 
	C391.484894,64.523262 395.579529,60.584446 399.462250,56.467503 
	C399.818390,56.753761 400.174530,57.040016 400.530670,57.326275 
	C376.892761,89.381920 358.237305,124.302658 340.545288,159.808533 
	C322.800323,195.420746 306.691040,231.719589 294.054810,269.465546 
	C277.240082,319.692993 262.789246,377.509796 265.268707,384.482788 
	C274.155029,359.896301 291.780640,343.572784 313.096191,330.518494 
	C318.007690,327.510559 323.928986,325.059723 327.238068,320.716370 
	C341.427704,302.091858 354.828369,282.865662 368.469574,263.825073 
	C369.522980,262.354767 370.212280,260.623596 371.819763,257.609222 
	C355.165436,261.773468 340.140717,265.530212 325.116028,269.286987 
	C324.937988,268.818878 324.759979,268.350739 324.581940,267.882629 
	C341.570038,260.347778 358.443573,252.534943 375.619659,245.456223 
	C380.446747,243.466873 383.799255,240.887100 386.282074,236.489166 
	C389.793549,230.269150 393.679047,224.261673 397.285950,218.093933 
	C416.304535,185.572739 433.467957,152.155869 444.069519,115.829865 
	C449.807678,96.168198 453.854553,76.191643 451.117737,55.396988 
	C447.744629,29.768185 436.554565,10.150648 411.000000,1.000000 
	C657.575745,1.000000 904.151550,1.000000 1151.000000,1.000000 
	C1151.000000,139.024780 1151.000000,277.049744 1150.711548,415.384033 
	C1148.926880,414.502716 1147.430786,413.312103 1146.103760,412.256073 
	C1145.257812,412.805023 1144.903320,412.927460 1144.714722,413.175903 
	C1143.811768,414.365173 1142.998901,415.624268 1142.072998,416.794342 
	C1132.235229,429.225281 1119.471313,435.820923 1103.538452,434.833801 
	C1088.450317,433.899017 1078.046997,422.207794 1074.889160,404.355865 
	C1074.117432,399.993408 1075.153198,398.606598 1079.518311,397.859680 
	C1101.375366,394.119812 1120.747803,385.457214 1135.923218,368.620148 
	C1145.313965,358.201233 1143.150024,343.138702 1130.340576,337.971283 
	C1112.333252,330.706940 1092.362915,331.683411 1077.339111,346.489594 
	C1056.056030,367.464355 1050.283691,393.175140 1059.189819,421.650574 
	C1064.051392,437.194427 1074.581421,447.638458 1091.149536,450.388916 
	C1097.156860,451.386261 1103.447510,451.226318 1109.568237,450.879883 
	C1123.183594,450.109436 1134.808594,445.244293 1142.268677,433.056610 
	C1145.296509,428.109650 1148.096436,423.023071 1151.000000,418.000000 
M541.820740,411.676025 
	C556.150940,430.331421 574.341309,443.230743 597.315002,449.106476 
	C599.838440,449.751923 602.712036,450.574310 604.498657,452.281952 
	C611.559998,459.031097 618.219543,466.198608 625.091858,473.148010 
	C631.990723,480.124298 638.427551,487.690125 646.012268,493.829742 
	C665.326660,509.463959 688.033081,513.424805 712.145691,510.772461 
	C717.370911,510.197693 722.530762,508.511383 727.538757,506.803497 
	C728.986084,506.309937 730.738220,503.942505 730.714294,502.460602 
	C730.658875,499.040588 727.844421,499.628204 725.499390,500.087891 
	C725.011902,500.183411 724.533386,500.326630 724.053589,500.458466 
	C710.993896,504.047852 699.121826,501.235199 687.962708,493.994781 
	C675.035889,485.607330 665.757935,473.618347 656.045654,462.049866 
	C652.805664,458.190643 649.715088,454.206024 646.241150,449.887024 
	C647.752014,449.423676 648.502380,449.152252 649.272827,448.963196 
	C676.704102,442.231018 697.444824,426.322083 711.980103,402.395874 
	C723.571655,383.315186 727.677551,362.565430 725.151001,340.239960 
	C721.268982,305.936768 703.272339,281.280823 673.935364,264.623322 
	C654.125793,253.375473 632.477905,250.171356 609.837952,252.920578 
	C582.422119,256.249756 559.937073,268.400330 542.995544,290.170166 
	C527.726929,309.790253 520.762512,332.112274 521.885132,357.156372 
	C522.788940,377.317505 529.496582,395.067841 541.820740,411.676025 
M417.506378,354.003784 
	C420.438995,355.896423 423.361267,357.805267 426.305969,359.678864 
	C439.620941,368.150818 453.257324,376.119415 464.318573,387.724426 
	C473.604675,397.467010 476.316193,408.780579 472.573639,421.307678 
	C469.100464,432.933136 460.468903,439.803680 448.809387,442.490051 
	C430.203705,446.776794 414.421417,441.945404 401.725494,427.347992 
	C395.422241,420.100677 392.529358,411.707184 391.958923,402.313110 
	C391.799194,399.682648 391.341248,396.771729 387.952118,397.432434 
	C386.719818,397.672699 385.170898,400.437927 385.145905,402.072235 
	C384.926941,416.400482 384.958710,430.734131 385.109467,445.064148 
	C385.125702,446.609863 386.214447,449.312256 387.077423,449.426575 
	C388.646973,449.634491 391.019836,448.776367 392.007294,447.530609 
	C396.756470,441.539185 396.650269,441.386230 404.017700,443.886749 
	C417.426941,448.437958 430.801483,452.612122 445.323029,452.098694 
	C466.842896,451.337921 484.143402,437.526550 491.630127,420.039673 
	C502.390198,394.907257 494.822144,369.729370 472.510559,353.827484 
	C458.180450,343.614105 443.065155,334.500183 428.769012,324.242310 
	C421.841675,319.271698 414.602783,313.744049 409.915222,306.833679 
	C397.144653,288.007385 404.905670,267.009216 426.770721,261.679138 
	C434.111542,259.889648 441.539917,260.013428 448.897491,261.813965 
	C457.571686,263.936676 465.385376,267.974121 469.959015,275.705811 
	C473.768860,282.146454 475.877808,289.577545 479.017548,296.443115 
	C479.667816,297.865082 481.540680,298.727966 482.850098,299.848572 
	C483.879303,298.625732 485.782104,297.417572 485.802917,296.177765 
	C486.018372,283.350342 485.986938,270.517181 485.829651,257.687988 
	C485.815521,256.536926 484.662689,254.798401 483.638214,254.421570 
	C482.495880,254.001419 480.051575,254.380447 479.629425,255.180008 
	C476.488586,261.129272 471.835388,259.010590 467.479523,257.640991 
	C454.216949,253.470871 440.935730,250.417603 426.827698,252.929916 
	C415.625275,254.924805 405.526215,259.246643 398.105804,267.710510 
	C384.020844,283.776093 382.976196,302.618347 389.158417,322.112305 
	C393.722473,336.503937 404.758270,345.651031 417.506378,354.003784 
M845.045837,437.800415 
	C831.132568,438.504639 817.211609,439.866791 803.308411,439.704987 
	C792.177307,439.575439 785.053406,431.856964 785.093262,421.201477 
	C785.275391,372.595337 785.632874,323.989471 786.095520,275.385101 
	C786.183777,266.118317 789.644897,262.274872 798.534912,259.905701 
	C799.336304,259.692139 800.307556,259.610504 800.866577,259.101532 
	C801.920837,258.141571 803.682068,256.609253 803.442322,255.864044 
	C802.977356,254.418793 801.526978,252.967087 800.113586,252.249146 
	C798.905640,251.635574 797.178162,252.008408 795.680481,252.007401 
	C780.856079,251.997452 766.031677,251.996414 751.207275,252.003128 
	C748.042969,252.004562 744.831482,251.740585 741.736450,252.215546 
	C740.415466,252.418259 738.492615,254.128601 738.389832,255.290619 
	C738.289917,256.419525 739.936157,258.271973 741.234070,258.825623 
	C743.320984,259.715851 745.786987,259.665070 748.031250,260.248688 
	C754.122620,261.832764 758.646545,264.989655 759.197205,271.928802 
	C759.419739,274.733002 759.955994,277.529785 759.962769,280.330902 
	C760.023987,305.648834 760.000610,330.966980 759.999451,356.285065 
	C759.998474,377.105865 760.592957,397.949768 759.790405,418.739685 
	C759.210083,433.771118 759.177734,438.556793 744.199097,441.666321 
	C742.942810,441.927124 741.390259,444.421692 741.310242,445.948456 
	C741.127258,449.436890 744.190552,448.957214 746.418091,448.959351 
	C784.395203,448.995880 822.372437,448.933502 860.349060,449.067596 
	C864.362976,449.081787 866.151489,447.564880 866.557556,443.809601 
	C867.270508,437.216614 868.226135,430.640472 868.632935,424.029755 
	C868.748962,422.143829 867.846191,419.123688 866.493225,418.440613 
	C863.621033,416.990540 862.243713,419.370575 861.372131,422.052063 
	C858.843384,429.832153 853.799316,435.196564 845.045837,437.800415 
M975.869568,348.315460 
	C976.576416,350.186523 977.902954,352.063721 977.884521,353.927612 
	C977.797546,362.730255 977.027344,371.531372 977.085083,380.329193 
	C977.202087,398.127747 977.524780,415.929321 978.098083,433.718872 
	C978.465820,445.128906 984.864441,450.785614 996.243958,451.029327 
	C1017.341125,451.481110 1030.464111,438.120300 1044.098877,424.283783 
	C1041.928345,422.419342 1040.248413,420.976349 1039.333252,420.190247 
	C1031.338257,425.452637 1024.409424,431.022125 1016.634216,434.891144 
	C1005.371521,440.495667 997.258789,435.523712 997.182861,422.947998 
	C997.041199,399.491241 997.745117,376.029999 997.996887,352.569550 
	C998.034912,349.020844 999.702942,347.951599 1002.943237,347.992310 
	C1009.606628,348.076080 1016.273865,347.894806 1022.935974,348.015137 
	C1026.503906,348.079559 1028.041626,346.757263 1028.035034,343.048889 
	C1028.028564,339.430939 1026.698975,337.912384 1023.039307,337.982574 
	C1016.377441,338.110352 1009.709045,337.892090 1003.047058,338.016968 
	C999.444153,338.084503 997.901855,336.668365 997.985291,333.012543 
	C998.122131,327.017731 998.087830,321.015198 997.950745,315.019928 
	C997.898132,312.721191 998.829224,309.716278 995.041626,309.146332 
	C991.654480,308.636688 990.589233,310.519714 989.563721,313.440552 
	C985.764893,324.260071 980.038513,333.632629 968.666626,338.080383 
	C966.355103,338.984436 963.703674,339.224854 961.634827,340.475586 
	C960.116516,341.393494 959.293884,343.462311 958.161255,345.018188 
	C959.608154,345.999817 960.981079,347.664948 962.516235,347.831146 
	C966.638245,348.277466 970.829651,348.082703 975.869568,348.315460 
M909.999451,411.497131 
	C909.987854,415.827454 910.549805,420.251923 909.857605,424.470551 
	C907.745789,437.340912 911.778503,439.786774 895.504150,441.209717 
	C894.298096,441.315155 892.388794,443.336395 892.387024,444.469391 
	C892.385254,445.614532 894.277771,446.850433 895.494995,447.860260 
	C895.901855,448.197815 896.785217,447.983337 897.450745,447.983521 
	C913.440063,447.988342 929.429321,447.988342 945.418640,447.987030 
	C945.918152,447.987000 946.567200,448.161804 946.891174,447.917053 
	C948.264099,446.879791 949.540527,445.714752 950.852234,444.596436 
	C949.610352,443.414917 948.556580,441.680939 947.083191,441.179291 
	C944.782349,440.395813 942.173340,440.574585 939.736938,440.120361 
	C933.239380,438.908997 930.898132,436.430573 930.134644,429.981964 
	C929.920349,428.171814 930.006287,426.322540 930.005798,424.491211 
	C929.998535,397.342651 930.005615,370.194092 929.995667,343.045532 
	C929.992676,334.942688 929.092529,334.151184 921.043335,335.118561 
	C920.061462,335.236572 919.105835,335.567444 918.135681,335.789429 
	C909.233826,337.826385 900.337097,339.886993 891.426880,341.886871 
	C885.840027,343.140808 885.372314,343.877686 886.829163,349.705414 
	C886.967102,349.793274 887.106873,349.960327 887.242798,349.957336 
	C889.893005,349.898621 892.587891,350.105347 895.184570,349.694550 
	C904.692017,348.190491 909.833801,352.233002 909.935181,362.030975 
	C910.102295,378.185150 909.992432,394.342255 909.999451,411.497131 
M905.776855,307.837219 
	C907.411072,308.638916 909.000244,309.554993 910.688354,310.219940 
	C914.972534,311.907532 919.551086,310.338745 921.910706,306.490143 
	C924.515381,302.241760 922.933655,295.458527 918.483643,291.793549 
	C913.135315,287.388763 907.250183,286.885742 903.122620,290.480621 
	C899.120483,293.966431 899.035645,299.032013 902.937195,304.789368 
	C903.579163,305.736725 904.409424,306.556519 905.776855,307.837219 
z"/>
<path fill="#003B57" opacity="1.000000" stroke="none" 
	d="
M410.532043,1.000000 
	C436.554565,10.150648 447.744629,29.768185 451.117737,55.396988 
	C453.854553,76.191643 449.807678,96.168198 444.069519,115.829865 
	C433.467957,152.155869 416.304535,185.572739 397.285950,218.093933 
	C393.679047,224.261673 389.793549,230.269150 386.282074,236.489166 
	C383.799255,240.887100 380.446747,243.466873 375.619659,245.456223 
	C358.443573,252.534943 341.570038,260.347778 324.581940,267.882629 
	C324.759979,268.350739 324.937988,268.818878 325.116028,269.286987 
	C340.140717,265.530212 355.165436,261.773468 371.819763,257.609222 
	C370.212280,260.623596 369.522980,262.354767 368.469574,263.825073 
	C354.828369,282.865662 341.427704,302.091858 327.238068,320.716370 
	C323.928986,325.059723 318.007690,327.510559 313.096191,330.518494 
	C291.780640,343.572784 274.155029,359.896301 265.268707,384.482788 
	C262.789246,377.509796 277.240082,319.692993 294.054810,269.465546 
	C306.691040,231.719589 322.800323,195.420746 340.545288,159.808533 
	C358.237305,124.302658 376.892761,89.381920 400.530670,57.326275 
	C400.174530,57.040016 399.818390,56.753761 399.462250,56.467503 
	C395.579529,60.584446 391.484894,64.523262 387.849976,68.848457 
	C369.851196,90.265076 353.936859,113.150681 339.797089,137.293869 
	C324.229706,163.874619 310.793488,191.493973 298.609497,219.769699 
	C286.130585,248.729782 276.665070,278.697205 269.952850,309.400543 
	C264.288635,335.309998 259.663971,361.521271 256.203552,387.812744 
	C253.741028,406.522308 253.052414,425.597900 253.275513,444.490021 
	C253.486603,462.364227 255.172348,480.320068 260.703888,497.590210 
	C260.905304,498.219086 261.143433,498.925781 261.043274,499.544159 
	C260.788605,501.116241 260.351501,502.658722 259.987457,504.213074 
	C258.686768,503.049591 256.606384,502.100922 256.216675,500.686432 
	C254.234055,493.490509 252.354553,486.232300 251.074005,478.885193 
	C249.395355,469.254150 248.310181,459.519653 246.955490,448.952026 
	C246.713257,441.132355 246.454422,434.191132 246.263596,427.248047 
	C245.830551,411.491791 245.658325,395.723633 244.900513,379.983429 
	C244.616379,374.081604 243.227768,368.194000 241.945602,362.387573 
	C239.547745,351.528534 236.859879,340.733521 234.247192,329.517578 
	C232.517197,324.401581 230.832657,319.679871 229.001541,314.598511 
	C228.194427,309.157166 227.533859,304.075409 226.942139,298.613037 
	C228.199768,293.560760 229.388565,288.889191 230.700760,283.919006 
	C231.246872,282.772095 231.669586,281.923767 232.323471,280.611481 
	C234.042572,283.187469 235.357315,285.157562 236.769775,287.478210 
	C240.224762,294.165955 243.582047,300.503113 247.556625,308.005524 
	C247.739166,306.001007 247.977341,305.358795 247.817612,304.838837 
	C245.886917,298.554382 243.897446,292.287964 241.888962,285.646362 
	C239.546204,279.512726 237.237778,273.749573 235.101974,267.662231 
	C236.766159,262.550262 238.257736,257.762482 239.894897,252.643677 
	C240.903397,250.111496 241.766312,247.910339 243.012329,244.731949 
	C247.735626,253.206650 251.894867,260.669250 256.054077,268.131866 
	C256.728973,267.829071 257.403870,267.526276 258.078766,267.223480 
	C254.041534,256.481842 250.004303,245.740204 246.013672,234.594269 
	C247.149292,229.164612 248.238327,224.139221 249.521576,218.796280 
	C251.741104,210.978104 253.766418,203.477509 255.945938,195.631058 
	C258.843750,187.232574 261.587341,179.179947 264.550720,170.857300 
	C266.512024,165.721893 268.253540,160.856537 270.179382,155.695435 
	C272.604950,150.281570 274.846222,145.163437 277.338562,139.806091 
	C279.660980,135.040405 281.732361,130.513931 284.017456,125.703323 
	C287.315338,119.335548 290.399567,113.251907 293.703674,106.923660 
	C298.236389,99.110275 302.549255,91.541489 307.111877,83.737991 
	C312.553925,75.663597 317.746155,67.823914 323.205902,59.779884 
	C325.428253,56.931019 327.383057,54.286499 329.606903,51.420532 
	C334.438660,45.801460 339.001404,40.403831 343.822205,34.838959 
	C347.718231,30.835972 351.356140,27.000225 355.276489,22.974396 
	C366.288483,12.513759 378.860626,5.410033 393.000000,1.000000 
	C398.688049,1.000000 404.376068,1.000000 410.532043,1.000000 
M404.604462,52.114838 
	C404.541443,52.145882 404.478424,52.176926 404.604462,52.114838 
z"/>
<path fill="#0F80CC" opacity="1.000000" stroke="none" 
	d="
M354.994049,23.164478 
	C351.356140,27.000225 347.718231,30.835972 343.327454,34.727989 
	C340.911316,34.729950 339.248047,34.628242 337.584778,34.628120 
	C239.336838,34.620953 141.088898,34.620125 42.840965,34.634941 
	C40.513130,34.635292 38.152660,34.606277 35.863258,34.956261 
	C26.928308,36.322151 20.046740,40.711258 15.675678,49.233673 
	C14.509478,52.958565 13.605697,56.434162 12.576057,60.305222 
	C12.473047,68.114006 12.495893,75.527313 12.434782,83.406631 
	C12.410289,91.559128 12.469753,99.245613 12.445131,107.398491 
	C12.413535,113.895264 12.466025,119.925636 12.444729,126.418739 
	C12.418989,131.246643 12.467036,135.611832 12.442728,140.440155 
	C12.420660,145.914856 12.470948,150.926422 12.448217,156.403824 
	C12.416367,161.570648 12.457535,166.271637 12.433369,171.438782 
	C12.411496,179.560913 12.454959,187.216888 12.422431,195.346695 
	C12.385983,203.522766 12.425526,211.224991 12.397038,219.397308 
	C12.366555,224.890427 12.404105,229.913437 12.388500,235.405396 
	C12.345673,241.224182 12.356000,246.574051 12.308432,252.395538 
	C12.264254,257.555267 12.277973,262.243347 12.257896,267.401428 
	C12.205499,272.895264 12.186898,277.919128 12.138818,283.412506 
	C12.096272,288.248138 12.083204,292.614258 12.056440,297.448059 
	C12.036757,302.605316 12.030770,307.294861 12.020935,312.448090 
	C12.037648,315.574890 11.949887,318.244049 12.099473,320.899872 
	C12.516175,328.298187 14.211780,329.978943 21.548674,329.978638 
	C92.463333,329.975494 163.378006,329.938904 234.292664,329.911865 
	C236.859879,340.733521 239.547745,351.528534 241.945602,362.387573 
	C243.227768,368.194000 244.616379,374.081604 244.900513,379.983429 
	C245.658325,395.723633 245.830551,411.491791 246.263596,427.248047 
	C246.454422,434.191132 246.713257,441.132355 246.886902,448.536804 
	C177.865585,448.999420 108.897011,448.746307 39.932705,449.176392 
	C22.495720,449.285156 5.167393,436.303009 1.266748,418.255127 
	C1.000000,296.645782 1.000000,175.291550 1.306556,53.279175 
	C7.050258,33.104576 24.215977,22.776686 42.392700,22.837416 
	C144.097610,23.177219 245.804245,22.999809 347.510284,23.007845 
	C350.004883,23.008041 352.499451,23.109989 354.994049,23.164478 
z"/>
<path fill="#47704C" opacity="1.000000" stroke="none" 
	d="
M355.276489,22.974396 
	C352.499451,23.109989 350.004883,23.008041 347.510284,23.007845 
	C245.804245,22.999809 144.097610,23.177219 42.392700,22.837416 
	C24.215977,22.776686 7.050258,33.104576 1.306556,52.810516 
	C1.000000,35.683758 1.000000,18.367516 1.000000,1.000000 
	C131.354218,1.000000 261.708466,1.000000 392.531342,1.000000 
	C378.860626,5.410033 366.288483,12.513759 355.276489,22.974396 
z"/>
<path fill="#003B57" opacity="1.000000" stroke="none" 
	d="
M1151.000000,417.666687 
	C1148.096436,423.023071 1145.296509,428.109650 1142.268677,433.056610 
	C1134.808594,445.244293 1123.183594,450.109436 1109.568237,450.879883 
	C1103.447510,451.226318 1097.156860,451.386261 1091.149536,450.388916 
	C1074.581421,447.638458 1064.051392,437.194427 1059.189819,421.650574 
	C1050.283691,393.175140 1056.056030,367.464355 1077.339111,346.489594 
	C1092.362915,331.683411 1112.333252,330.706940 1130.340576,337.971283 
	C1143.150024,343.138702 1145.313965,358.201233 1135.923218,368.620148 
	C1120.747803,385.457214 1101.375366,394.119812 1079.518311,397.859680 
	C1075.153198,398.606598 1074.117432,399.993408 1074.889160,404.355865 
	C1078.046997,422.207794 1088.450317,433.899017 1103.538452,434.833801 
	C1119.471313,435.820923 1132.235229,429.225281 1142.072998,416.794342 
	C1142.998901,415.624268 1143.811768,414.365173 1144.714722,413.175903 
	C1144.903320,412.927460 1145.257812,412.805023 1146.103760,412.256073 
	C1147.430786,413.312103 1148.926880,414.502716 1150.711548,415.846680 
	C1151.000000,416.444458 1151.000000,416.888885 1151.000000,417.666687 
M1112.437134,353.158325 
	C1102.731445,344.519318 1094.358032,344.732910 1085.536865,354.003967 
	C1079.472778,360.377228 1076.685059,368.392212 1075.104248,376.790161 
	C1074.241699,381.372345 1074.254639,386.119263 1073.800537,391.675385 
	C1087.764160,389.015320 1100.199097,386.020355 1110.070923,377.192993 
	C1116.637207,371.321533 1118.661499,360.973175 1112.437134,353.158325 
z"/>
<path fill="#003B57" opacity="1.000000" stroke="none" 
	d="
M541.617554,411.380737 
	C529.496582,395.067841 522.788940,377.317505 521.885132,357.156372 
	C520.762512,332.112274 527.726929,309.790253 542.995544,290.170166 
	C559.937073,268.400330 582.422119,256.249756 609.837952,252.920578 
	C632.477905,250.171356 654.125793,253.375473 673.935364,264.623322 
	C703.272339,281.280823 721.268982,305.936768 725.151001,340.239960 
	C727.677551,362.565430 723.571655,383.315186 711.980103,402.395874 
	C697.444824,426.322083 676.704102,442.231018 649.272827,448.963196 
	C648.502380,449.152252 647.752014,449.423676 646.241150,449.887024 
	C649.715088,454.206024 652.805664,458.190643 656.045654,462.049866 
	C665.757935,473.618347 675.035889,485.607330 687.962708,493.994781 
	C699.121826,501.235199 710.993896,504.047852 724.053589,500.458466 
	C724.533386,500.326630 725.011902,500.183411 725.499390,500.087891 
	C727.844421,499.628204 730.658875,499.040588 730.714294,502.460602 
	C730.738220,503.942505 728.986084,506.309937 727.538757,506.803497 
	C722.530762,508.511383 717.370911,510.197693 712.145691,510.772461 
	C688.033081,513.424805 665.326660,509.463959 646.012268,493.829742 
	C638.427551,487.690125 631.990723,480.124298 625.091858,473.148010 
	C618.219543,466.198608 611.559998,459.031097 604.498657,452.281952 
	C602.712036,450.574310 599.838440,449.751923 597.315002,449.106476 
	C574.341309,443.230743 556.150940,430.331421 541.617554,411.380737 
M689.210266,394.682922 
	C694.237061,382.127014 695.961792,368.769165 695.668152,355.583282 
	C695.363892,341.916779 693.407288,328.102661 690.465393,314.728821 
	C687.234924,300.043549 679.381042,287.219574 668.237671,277.012634 
	C654.309387,264.254852 637.683044,259.350342 618.706848,260.845184 
	C590.593567,263.059814 572.505981,278.544739 561.240356,303.066437 
	C553.465332,319.990265 551.410278,338.138733 551.978088,356.652649 
	C552.578796,376.240112 556.555847,394.871796 566.942444,411.781372 
	C586.824158,444.149109 621.819214,451.503937 652.913269,437.422180 
	C671.231750,429.126129 682.107300,413.850464 689.210266,394.682922 
z"/>
<path fill="#003B57" opacity="1.000000" stroke="none" 
	d="
M417.220276,353.785004 
	C404.758270,345.651031 393.722473,336.503937 389.158417,322.112305 
	C382.976196,302.618347 384.020844,283.776093 398.105804,267.710510 
	C405.526215,259.246643 415.625275,254.924805 426.827698,252.929916 
	C440.935730,250.417603 454.216949,253.470871 467.479523,257.640991 
	C471.835388,259.010590 476.488586,261.129272 479.629425,255.180008 
	C480.051575,254.380447 482.495880,254.001419 483.638214,254.421570 
	C484.662689,254.798401 485.815521,256.536926 485.829651,257.687988 
	C485.986938,270.517181 486.018372,283.350342 485.802917,296.177765 
	C485.782104,297.417572 483.879303,298.625732 482.850098,299.848572 
	C481.540680,298.727966 479.667816,297.865082 479.017548,296.443115 
	C475.877808,289.577545 473.768860,282.146454 469.959015,275.705811 
	C465.385376,267.974121 457.571686,263.936676 448.897491,261.813965 
	C441.539917,260.013428 434.111542,259.889648 426.770721,261.679138 
	C404.905670,267.009216 397.144653,288.007385 409.915222,306.833679 
	C414.602783,313.744049 421.841675,319.271698 428.769012,324.242310 
	C443.065155,334.500183 458.180450,343.614105 472.510559,353.827484 
	C494.822144,369.729370 502.390198,394.907257 491.630127,420.039673 
	C484.143402,437.526550 466.842896,451.337921 445.323029,452.098694 
	C430.801483,452.612122 417.426941,448.437958 404.017700,443.886749 
	C396.650269,441.386230 396.756470,441.539185 392.007294,447.530609 
	C391.019836,448.776367 388.646973,449.634491 387.077423,449.426575 
	C386.214447,449.312256 385.125702,446.609863 385.109467,445.064148 
	C384.958710,430.734131 384.926941,416.400482 385.145905,402.072235 
	C385.170898,400.437927 386.719818,397.672699 387.952118,397.432434 
	C391.341248,396.771729 391.799194,399.682648 391.958923,402.313110 
	C392.529358,411.707184 395.422241,420.100677 401.725494,427.347992 
	C414.421417,441.945404 430.203705,446.776794 448.809387,442.490051 
	C460.468903,439.803680 469.100464,432.933136 472.573639,421.307678 
	C476.316193,408.780579 473.604675,397.467010 464.318573,387.724426 
	C453.257324,376.119415 439.620941,368.150818 426.305969,359.678864 
	C423.361267,357.805267 420.438995,355.896423 417.220276,353.785004 
z"/>
<path fill="#003B57" opacity="1.000000" stroke="none" 
	d="
M845.429199,437.675964 
	C853.799316,435.196564 858.843384,429.832153 861.372131,422.052063 
	C862.243713,419.370575 863.621033,416.990540 866.493225,418.440613 
	C867.846191,419.123688 868.748962,422.143829 868.632935,424.029755 
	C868.226135,430.640472 867.270508,437.216614 866.557556,443.809601 
	C866.151489,447.564880 864.362976,449.081787 860.349060,449.067596 
	C822.372437,448.933502 784.395203,448.995880 746.418091,448.959351 
	C744.190552,448.957214 741.127258,449.436890 741.310242,445.948456 
	C741.390259,444.421692 742.942810,441.927124 744.199097,441.666321 
	C759.177734,438.556793 759.210083,433.771118 759.790405,418.739685 
	C760.592957,397.949768 759.998474,377.105865 759.999451,356.285065 
	C760.000610,330.966980 760.023987,305.648834 759.962769,280.330902 
	C759.955994,277.529785 759.419739,274.733002 759.197205,271.928802 
	C758.646545,264.989655 754.122620,261.832764 748.031250,260.248688 
	C745.786987,259.665070 743.320984,259.715851 741.234070,258.825623 
	C739.936157,258.271973 738.289917,256.419525 738.389832,255.290619 
	C738.492615,254.128601 740.415466,252.418259 741.736450,252.215546 
	C744.831482,251.740585 748.042969,252.004562 751.207275,252.003128 
	C766.031677,251.996414 780.856079,251.997452 795.680481,252.007401 
	C797.178162,252.008408 798.905640,251.635574 800.113586,252.249146 
	C801.526978,252.967087 802.977356,254.418793 803.442322,255.864044 
	C803.682068,256.609253 801.920837,258.141571 800.866577,259.101532 
	C800.307556,259.610504 799.336304,259.692139 798.534912,259.905701 
	C789.644897,262.274872 786.183777,266.118317 786.095520,275.385101 
	C785.632874,323.989471 785.275391,372.595337 785.093262,421.201477 
	C785.053406,431.856964 792.177307,439.575439 803.308411,439.704987 
	C817.211609,439.866791 831.132568,438.504639 845.429199,437.675964 
z"/>
<path fill="#003B57" opacity="1.000000" stroke="none" 
	d="
M975.431519,348.228973 
	C970.829651,348.082703 966.638245,348.277466 962.516235,347.831146 
	C960.981079,347.664948 959.608154,345.999817 958.161255,345.018188 
	C959.293884,343.462311 960.116516,341.393494 961.634827,340.475586 
	C963.703674,339.224854 966.355103,338.984436 968.666626,338.080383 
	C980.038513,333.632629 985.764893,324.260071 989.563721,313.440552 
	C990.589233,310.519714 991.654480,308.636688 995.041626,309.146332 
	C998.829224,309.716278 997.898132,312.721191 997.950745,315.019928 
	C998.087830,321.015198 998.122131,327.017731 997.985291,333.012543 
	C997.901855,336.668365 999.444153,338.084503 1003.047058,338.016968 
	C1009.709045,337.892090 1016.377441,338.110352 1023.039307,337.982574 
	C1026.698975,337.912384 1028.028564,339.430939 1028.035034,343.048889 
	C1028.041626,346.757263 1026.503906,348.079559 1022.935974,348.015137 
	C1016.273865,347.894806 1009.606628,348.076080 1002.943237,347.992310 
	C999.702942,347.951599 998.034912,349.020844 997.996887,352.569550 
	C997.745117,376.029999 997.041199,399.491241 997.182861,422.947998 
	C997.258789,435.523712 1005.371521,440.495667 1016.634216,434.891144 
	C1024.409424,431.022125 1031.338257,425.452637 1039.333252,420.190247 
	C1040.248413,420.976349 1041.928345,422.419342 1044.098877,424.283783 
	C1030.464111,438.120300 1017.341125,451.481110 996.243958,451.029327 
	C984.864441,450.785614 978.465820,445.128906 978.098083,433.718872 
	C977.524780,415.929321 977.202087,398.127747 977.085083,380.329193 
	C977.027344,371.531372 977.797546,362.730255 977.884521,353.927612 
	C977.902954,352.063721 976.576416,350.186523 975.431519,348.228973 
z"/>
<path fill="#003B57" opacity="1.000000" stroke="none" 
	d="
M909.999390,410.997620 
	C909.992432,394.342255 910.102295,378.185150 909.935181,362.030975 
	C909.833801,352.233002 904.692017,348.190491 895.184570,349.694550 
	C892.587891,350.105347 889.893005,349.898621 887.242798,349.957336 
	C887.106873,349.960327 886.967102,349.793274 886.829163,349.705414 
	C885.372314,343.877686 885.840027,343.140808 891.426880,341.886871 
	C900.337097,339.886993 909.233826,337.826385 918.135681,335.789429 
	C919.105835,335.567444 920.061462,335.236572 921.043335,335.118561 
	C929.092529,334.151184 929.992676,334.942688 929.995667,343.045532 
	C930.005615,370.194092 929.998535,397.342651 930.005798,424.491211 
	C930.006287,426.322540 929.920349,428.171814 930.134644,429.981964 
	C930.898132,436.430573 933.239380,438.908997 939.736938,440.120361 
	C942.173340,440.574585 944.782349,440.395813 947.083191,441.179291 
	C948.556580,441.680939 949.610352,443.414917 950.852234,444.596436 
	C949.540527,445.714752 948.264099,446.879791 946.891174,447.917053 
	C946.567200,448.161804 945.918152,447.987000 945.418640,447.987030 
	C929.429321,447.988342 913.440063,447.988342 897.450745,447.983521 
	C896.785217,447.983337 895.901855,448.197815 895.494995,447.860260 
	C894.277771,446.850433 892.385254,445.614532 892.387024,444.469391 
	C892.388794,443.336395 894.298096,441.315155 895.504150,441.209717 
	C911.778503,439.786774 907.745789,437.340912 909.857605,424.470551 
	C910.549805,420.251923 909.987854,415.827454 909.999390,410.997620 
z"/>
<path fill="#003B57" opacity="1.000000" stroke="none" 
	d="
M905.464722,307.636230 
	C904.409424,306.556519 903.579163,305.736725 902.937195,304.789368 
	C899.035645,299.032013 899.120483,293.966431 903.122620,290.480621 
	C907.250183,286.885742 913.135315,287.388763 918.483643,291.793549 
	C922.933655,295.458527 924.515381,302.241760 921.910706,306.490143 
	C919.551086,310.338745 914.972534,311.907532 910.688354,310.219940 
	C909.000244,309.554993 907.411072,308.638916 905.464722,307.636230 
z"/>
<path fill="#89D0F1" opacity="1.000000" stroke="none" 
	d="
M12.518740,82.940628 
	C12.495893,75.527313 12.473047,68.114006 13.064233,60.318024 
	C116.764961,59.951645 219.851654,59.967934 322.938354,59.984222 
	C317.746155,67.823914 312.553925,75.663597 306.713196,83.647324 
	C302.255981,83.527893 298.447449,83.036774 294.638550,83.034241 
	C200.598633,82.971611 106.558685,82.960724 12.518740,82.940628 
z"/>
<path fill="#7EC9EE" opacity="1.000000" stroke="none" 
	d="
M12.434782,83.406631 
	C106.558685,82.960724 200.598633,82.971611 294.638550,83.034241 
	C298.447449,83.036774 302.255981,83.527893 306.463379,83.882042 
	C302.549255,91.541489 298.236389,99.110275 293.203308,106.904144 
	C288.484253,107.086372 284.485413,107.007317 280.486603,107.005981 
	C191.167480,106.976189 101.848343,106.954956 12.529218,106.932098 
	C12.469753,99.245613 12.410289,91.559128 12.434782,83.406631 
z"/>
<path fill="#58B0E2" opacity="1.000000" stroke="none" 
	d="
M12.498422,194.872864 
	C12.454959,187.216888 12.411496,179.560913 12.866222,171.441620 
	C43.193939,170.985733 73.023476,170.983475 102.852997,171.002731 
	C156.678970,171.037491 210.504959,171.085098 264.330933,171.127319 
	C261.587341,179.179947 258.843750,187.232574 255.552399,195.538391 
	C251.530762,195.528198 248.057220,195.040970 244.582962,195.035828 
	C207.149719,194.980392 169.716370,195.017365 132.283066,194.996109 
	C92.354843,194.973450 52.426636,194.915436 12.498422,194.872864 
z"/>
<path fill="#49A6DE" opacity="1.000000" stroke="none" 
	d="
M12.422431,195.346680 
	C52.426636,194.915436 92.354843,194.973450 132.283066,194.996109 
	C169.716370,195.017365 207.149719,194.980392 244.582962,195.035828 
	C248.057220,195.040970 251.530762,195.528198 255.398178,195.884247 
	C253.766418,203.477509 251.741104,210.978104 249.031616,218.782471 
	C244.016495,219.057663 239.685562,219.005753 235.354599,219.004044 
	C161.058090,218.974747 86.761581,218.951675 12.465069,218.927231 
	C12.425526,211.224991 12.385983,203.522766 12.422431,195.346680 
z"/>
<path fill="#73C1EA" opacity="1.000000" stroke="none" 
	d="
M12.445131,107.398491 
	C101.848343,106.954956 191.167480,106.976189 280.486603,107.005981 
	C284.485413,107.007317 288.484253,107.086372 292.983459,107.148743 
	C290.399567,113.251907 287.315338,119.335548 283.561157,125.703888 
	C192.766953,125.977730 102.642738,125.966873 12.518516,125.956017 
	C12.466025,119.925636 12.413535,113.895264 12.445131,107.398491 
z"/>
<path fill="#96D8F5" opacity="1.000000" stroke="none" 
	d="
M15.938098,48.984379 
	C20.046740,40.711258 26.928308,36.322151 35.863258,34.956261 
	C38.152660,34.606277 40.513130,34.635292 42.840965,34.634941 
	C141.088898,34.620125 239.336838,34.620953 337.584778,34.628120 
	C339.248047,34.628242 340.911316,34.729950 343.069336,34.895229 
	C339.001404,40.403831 334.438660,45.801460 329.254150,51.196396 
	C324.265167,50.462826 319.898773,49.099426 315.530640,49.093914 
	C215.666565,48.967842 115.802322,48.989944 15.938098,48.984379 
z"/>
<path fill="#66B9E7" opacity="1.000000" stroke="none" 
	d="
M12.521237,155.937988 
	C12.470948,150.926422 12.420660,145.914856 12.875835,140.441956 
	C101.283356,140.002197 189.185410,140.023743 277.087463,140.045303 
	C274.846222,145.163437 272.604950,150.281570 269.711060,155.697235 
	C183.546021,155.975845 98.033630,155.956909 12.521237,155.937988 
z"/>
<path fill="#3A9CD9" opacity="1.000000" stroke="none" 
	d="
M12.366328,251.923889 
	C12.356000,246.574051 12.345673,241.224182 12.816798,235.414978 
	C90.854523,234.969925 168.410797,234.984253 245.967072,234.998566 
	C250.004303,245.740204 254.041534,256.481842 258.078766,267.223480 
	C257.403870,267.526276 256.728973,267.829071 256.054077,268.131866 
	C251.894867,260.669250 247.735626,253.206650 243.012329,244.731949 
	C241.766312,247.910339 240.903397,250.111496 239.481003,252.622375 
	C232.283234,252.621384 225.645309,252.049103 219.006622,252.040344 
	C150.126587,251.949432 81.246445,251.949265 12.366328,251.923889 
z"/>
<path fill="#5EB4E4" opacity="1.000000" stroke="none" 
	d="
M12.448217,156.403824 
	C98.033630,155.956909 183.546021,155.975845 269.526733,155.992981 
	C268.253540,160.856537 266.512024,165.721893 264.550720,170.857300 
	C210.504959,171.085098 156.678970,171.037491 102.852997,171.002731 
	C73.023476,170.983475 43.193939,170.985733 12.931559,170.975464 
	C12.457535,166.271637 12.416367,161.570648 12.448217,156.403824 
z"/>
<path fill="#42A1DB" opacity="1.000000" stroke="none" 
	d="
M246.013672,234.594269 
	C168.410797,234.984253 90.854523,234.969925 12.869954,234.946045 
	C12.404105,229.913437 12.366555,224.890427 12.397038,219.397308 
	C86.761581,218.951675 161.058090,218.974747 235.354599,219.004044 
	C239.685562,219.005753 244.016495,219.057663 248.837402,219.100037 
	C248.238327,224.139221 247.149292,229.164612 246.013672,234.594269 
z"/>
<path fill="#6DBDE9" opacity="1.000000" stroke="none" 
	d="
M277.338531,139.806091 
	C189.185410,140.023743 101.283356,140.002197 12.948191,139.978821 
	C12.467036,135.611832 12.418989,131.246643 12.444729,126.418739 
	C102.642738,125.966873 192.766953,125.977730 283.347473,125.988029 
	C281.732361,130.513931 279.660980,135.040405 277.338531,139.806091 
z"/>
<path fill="#2B93D4" opacity="1.000000" stroke="none" 
	d="
M12.168297,282.942963 
	C12.186898,277.919128 12.205499,272.895264 12.696369,267.413574 
	C81.112396,266.970917 149.056183,266.961578 216.999863,267.043793 
	C222.976730,267.051025 228.952881,267.657990 234.929367,267.986389 
	C237.237778,273.749573 239.546204,279.512726 241.518311,285.737427 
	C239.678680,286.508484 238.175369,286.818054 236.672058,287.127655 
	C235.357315,285.157562 234.042572,283.187469 232.323471,280.611481 
	C231.669586,281.923767 231.246872,282.772095 230.256195,283.808136 
	C225.723175,283.664368 221.758423,283.048309 217.792999,283.043762 
	C149.251480,282.965454 80.709877,282.962463 12.168297,282.942963 
z"/>
<path fill="#1685CE" opacity="1.000000" stroke="none" 
	d="
M234.247192,329.517578 
	C163.378006,329.938904 92.463333,329.975494 21.548674,329.978638 
	C14.211780,329.978943 12.516175,328.298187 12.099473,320.899872 
	C11.949887,318.244049 12.037648,315.574890 12.377132,312.584442 
	C16.648884,312.837860 20.559723,313.917938 24.472424,313.924713 
	C86.056755,314.031281 147.641357,313.970734 209.225800,314.042023 
	C215.866898,314.049713 222.507355,314.638763 229.148102,314.958160 
	C230.832657,319.679871 232.517197,324.401581 234.247192,329.517578 
z"/>
<path fill="#248ED3" opacity="1.000000" stroke="none" 
	d="
M12.138817,283.412506 
	C80.709877,282.962463 149.251480,282.965454 217.792999,283.043762 
	C221.758423,283.048309 225.723175,283.664368 230.132797,284.106689 
	C229.388565,288.889191 228.199768,293.560760 226.481659,298.613953 
	C158.717590,298.996735 91.482773,299.032928 24.248236,298.912781 
	C20.187731,298.905518 16.129452,297.653290 12.070137,296.980347 
	C12.083204,292.614258 12.096272,288.248138 12.138817,283.412506 
z"/>
<path fill="#91D4F4" opacity="1.000000" stroke="none" 
	d="
M15.675678,49.233673 
	C115.802322,48.989944 215.666565,48.967842 315.530640,49.093914 
	C319.898773,49.099426 324.265167,50.462826 328.985107,51.417839 
	C327.383057,54.286499 325.428253,56.931019 323.205902,59.779881 
	C219.851654,59.967934 116.764961,59.951645 13.190090,59.922558 
	C13.605697,56.434162 14.509478,52.958565 15.675678,49.233673 
z"/>
<path fill="#3397D7" opacity="1.000000" stroke="none" 
	d="
M235.101974,267.662231 
	C228.952881,267.657990 222.976730,267.051025 216.999863,267.043793 
	C149.056183,266.961578 81.112396,266.970917 12.730165,266.943604 
	C12.277973,262.243347 12.264254,257.555267 12.308432,252.395538 
	C81.246445,251.949265 150.126587,251.949432 219.006622,252.040344 
	C225.645309,252.049103 232.283234,252.621384 239.335419,252.953369 
	C238.257736,257.762482 236.766159,262.550262 235.101974,267.662231 
z"/>
<path fill="#1D89D0" opacity="1.000000" stroke="none" 
	d="
M12.056440,297.448059 
	C16.129452,297.653290 20.187731,298.905518 24.248236,298.912781 
	C91.482773,299.032928 158.717590,298.996735 226.412811,298.994629 
	C227.533859,304.075409 228.194427,309.157166 229.001541,314.598511 
	C222.507355,314.638763 215.866898,314.049713 209.225800,314.042023 
	C147.641357,313.970734 86.056755,314.031281 24.472424,313.924713 
	C20.559723,313.917938 16.648884,312.837860 12.380981,312.120728 
	C12.030770,307.294861 12.036757,302.605316 12.056440,297.448059 
z"/>
<path fill="#1D89D0" opacity="1.000000" stroke="none" 
	d="
M236.769775,287.478210 
	C238.175369,286.818054 239.678680,286.508484 241.552643,286.107880 
	C243.897446,292.287964 245.886917,298.554382 247.817612,304.838837 
	C247.977341,305.358795 247.739166,306.001007 247.556625,308.005524 
	C243.582047,300.503113 240.224762,294.165955 236.769775,287.478210 
z"/>
<path fill="#47704C" opacity="1.000000" stroke="none" 
	d="
M404.509949,52.161400 
	C404.478424,52.176926 404.541443,52.145882 404.509949,52.161400 
z"/>
<path fill="#47704C" opacity="1.000000" stroke="none" 
	d="
M1112.642822,353.466919 
	C1118.661499,360.973175 1116.637207,371.321533 1110.070923,377.192993 
	C1100.199097,386.020355 1087.764160,389.015320 1073.800537,391.675385 
	C1074.254639,386.119263 1074.241699,381.372345 1075.104248,376.790161 
	C1076.685059,368.392212 1079.472778,360.377228 1085.536865,354.003967 
	C1094.358032,344.732910 1102.731445,344.519318 1112.642822,353.466919 
z"/>
<path fill="#47704C" opacity="1.000000" stroke="none" 
	d="
M689.106323,395.060303 
	C682.107300,413.850464 671.231750,429.126129 652.913269,437.422180 
	C621.819214,451.503937 586.824158,444.149109 566.942444,411.781372 
	C556.555847,394.871796 552.578796,376.240112 551.978088,356.652649 
	C551.410278,338.138733 553.465332,319.990265 561.240356,303.066437 
	C572.505981,278.544739 590.593567,263.059814 618.706848,260.845184 
	C637.683044,259.350342 654.309387,264.254852 668.237671,277.012634 
	C679.381042,287.219574 687.234924,300.043549 690.465393,314.728821 
	C693.407288,328.102661 695.363892,341.916779 695.668152,355.583282 
	C695.961792,368.769165 694.237061,382.127014 689.106323,395.060303 
z"/>
</svg>